<?xml version="1.0" standalone="no"?>
<!DOCTYPE svg PUBLIC "-//W3C//DTD SVG 20010904//EN"
 "http://www.w3.org/TR/2001/REC-SVG-20010904/DTD/svg10.dtd">
<svg version="1.0" xmlns="http://www.w3.org/2000/svg"
 width="1263.000000pt" height="283.000000pt" viewBox="0 0 1263.000000 283.000000"
 preserveAspectRatio="xMidYMid meet">

<g transform="translate(0.000000,283.000000) scale(0.100000,-0.100000)"
fill="#000000" stroke="none">
<path d="M7092 2558 c-9 -9 -12 -99 -12 -345 l0 -333 -42 30 c-71 52 -161 73
-286 68 -124 -5 -189 -26 -285 -92 -114 -78 -213 -231 -259 -401 -18 -68 -21
-107 -21 -265 -1 -159 2 -196 21 -265 83 -307 286 -485 550 -485 122 0 218 35
317 115 l55 45 0 -34 c0 -18 3 -48 6 -65 l7 -31 182 0 c165 0 184 2 190 17 12
31 5 2025 -7 2040 -15 18 -398 19 -416 1z m-114 -970 c27 -19 49 -45 69 -85
27 -57 28 -63 31 -248 4 -215 -4 -273 -48 -334 -67 -92 -199 -112 -287 -45
-74 56 -123 193 -123 342 0 187 62 335 163 386 49 25 144 17 195 -16z"/>
<path d="M8592 2558 c-9 -9 -12 -99 -12 -345 l0 -333 -42 30 c-71 52 -161 73
-286 68 -124 -5 -189 -26 -285 -92 -114 -78 -213 -231 -259 -401 -18 -68 -21
-107 -21 -265 -1 -159 2 -196 21 -265 83 -307 286 -485 550 -485 122 0 218 35
317 115 l55 45 0 -34 c0 -18 3 -48 6 -65 l7 -31 182 0 c165 0 184 2 190 17 12
31 5 2025 -7 2040 -15 18 -398 19 -416 1z m-114 -970 c27 -19 49 -45 69 -85
27 -57 28 -63 31 -248 4 -215 -4 -273 -48 -334 -67 -92 -199 -112 -287 -45
-74 56 -123 193 -123 342 0 187 62 335 163 386 49 25 144 17 195 -16z"/>
<path d="M9364 2511 c-156 -71 -168 -314 -19 -406 43 -26 57 -30 124 -30 92 0
149 27 195 93 25 35 31 55 34 112 2 38 -1 84 -8 105 -16 49 -66 104 -115 126
-54 25 -157 25 -211 0z"/>
<path d="M1037 2495 c-107 -20 -188 -49 -286 -101 -299 -158 -466 -453 -488
-858 -11 -210 25 -410 103 -576 135 -286 372 -446 711 -480 177 -18 444 14
543 65 26 14 30 21 26 43 -3 15 -15 81 -26 147 -12 66 -23 128 -26 137 -8 28
-43 30 -129 8 -246 -64 -459 -19 -593 124 -67 72 -103 140 -134 254 -30 110
-30 353 0 463 30 110 76 194 145 266 145 151 361 191 605 112 93 -31 96 -27
143 161 21 85 38 158 39 161 0 11 -96 49 -167 64 -99 23 -368 28 -466 10z"/>
<path d="M3549 2490 c-53 -4 -135 -13 -183 -20 l-86 -12 0 -973 0 -973 28 -6
c15 -3 88 -10 162 -16 590 -44 933 61 1073 328 86 163 90 366 9 516 -37 70
-136 168 -205 203 l-58 29 61 43 c124 87 190 218 190 375 0 146 -44 250 -142
341 -65 60 -172 117 -263 140 -134 33 -354 42 -586 25z m409 -345 c60 -18 119
-66 138 -112 20 -46 17 -140 -5 -189 -23 -49 -80 -98 -140 -119 -25 -9 -90
-19 -143 -22 l-98 -6 0 225 c0 124 3 228 7 231 13 13 189 7 241 -8z m-30 -790
c84 -20 133 -46 174 -95 56 -65 71 -148 46 -248 -8 -34 -25 -60 -62 -97 -68
-67 -134 -89 -271 -90 l-100 0 -3 273 -2 272 77 0 c43 0 106 -7 141 -15z"/>
<path d="M10410 1979 c-248 -38 -440 -222 -526 -504 -25 -82 -27 -105 -28
-255 -1 -127 3 -183 17 -243 57 -241 227 -417 462 -479 179 -47 458 -29 656
43 l56 20 -29 142 c-29 148 -42 173 -83 164 -208 -48 -211 -49 -325 -45 -93 3
-125 8 -167 27 -71 31 -137 104 -157 172 -9 29 -16 54 -16 56 0 2 186 3 414 3
l415 0 7 57 c11 93 -2 309 -25 397 -59 226 -201 380 -396 432 -69 19 -198 25
-275 13z m197 -355 c39 -30 77 -104 88 -171 l7 -43 -216 0 -215 0 15 53 c26
86 78 155 139 184 48 22 138 11 182 -23z"/>
<path d="M11670 1981 c-185 -26 -329 -119 -400 -260 -69 -140 -65 -292 12
-414 52 -82 131 -142 278 -214 74 -36 149 -76 167 -89 68 -51 62 -149 -11
-179 -74 -31 -221 -13 -343 40 -59 26 -80 30 -101 17 -7 -5 -30 -75 -52 -156
l-38 -146 59 -30 c101 -51 214 -74 374 -74 213 -1 347 44 456 153 67 68 105
145 120 245 22 150 -20 277 -128 384 -54 53 -86 74 -216 136 -169 82 -207 112
-207 161 0 97 151 125 314 60 108 -43 112 -40 158 130 21 77 38 143 38 146 0
11 -97 49 -173 68 -86 22 -231 32 -307 22z"/>
<path d="M4796 1941 c-16 -17 -17 -58 -14 -527 4 -487 5 -512 26 -587 66 -239
217 -357 455 -357 127 0 241 42 332 122 l43 38 7 -65 7 -65 183 0 c124 0 186
4 191 11 3 6 6 327 5 712 -2 627 -4 704 -18 719 -14 16 -37 18 -203 18 -167 0
-189 -2 -203 -18 -14 -16 -17 -71 -19 -482 -3 -457 -3 -466 -25 -506 -44 -83
-118 -124 -198 -111 -52 8 -82 34 -112 95 l-28 57 -3 465 c-3 410 -5 467 -19
482 -14 16 -37 18 -203 18 -171 0 -188 -2 -204 -19z"/>
<path d="M9267 1942 c-16 -17 -17 -81 -17 -714 0 -660 1 -696 18 -711 16 -15
46 -17 208 -17 135 0 194 4 202 12 9 9 12 181 12 713 0 667 -1 703 -18 718
-16 15 -45 17 -204 17 -166 0 -187 -2 -201 -18z"/>
</g>
</svg>
