<?xml version="1.0" standalone="no"?>
<!DOCTYPE svg PUBLIC "-//W3C//DTD SVG 20010904//EN"
 "http://www.w3.org/TR/2001/REC-SVG-20010904/DTD/svg10.dtd">
<svg version="1.0" xmlns="http://www.w3.org/2000/svg"
 width="1263.000000pt" height="283.000000pt" viewBox="0 0 1263.000000 283.000000"
 preserveAspectRatio="xMidYMid meet">
<metadata>
Created by potrace 1.16, written by Peter Selinger 2001-2019
</metadata>
<g transform="translate(0.000000,283.000000) scale(0.100000,-0.100000)"
fill="#000000" stroke="none">
<path d="M7097 2562 c-15 -17 -17 -55 -17 -345 l0 -326 -56 34 c-214 129 -519
60 -686 -156 -108 -139 -160 -318 -160 -549 -1 -265 65 -458 204 -599 184
-186 472 -210 676 -56 31 24 60 41 64 38 5 -2 8 -29 8 -59 l0 -54 184 0 c158
0 185 2 197 16 11 14 13 186 10 1028 -3 899 -5 1013 -18 1029 -14 15 -38 17
-203 17 -168 0 -189 -2 -203 -18z m-122 -980 c25 -18 51 -49 70 -87 l30 -59 0
-195 c0 -219 -8 -266 -58 -326 -81 -98 -224 -98 -305 1 -119 144 -115 492 7
627 74 82 173 97 256 39z"/>
<path d="M8597 2562 c-15 -17 -17 -55 -17 -345 l0 -326 -56 34 c-214 129 -519
60 -686 -156 -108 -139 -160 -318 -160 -549 -1 -265 65 -458 204 -599 184
-186 472 -210 676 -56 31 24 60 41 64 38 5 -2 8 -29 8 -59 l0 -54 184 0 c158
0 185 2 197 16 11 14 13 186 10 1028 -3 899 -5 1013 -18 1029 -14 15 -38 17
-203 17 -168 0 -189 -2 -203 -18z m-122 -980 c25 -18 51 -49 70 -87 l30 -59 0
-195 c0 -219 -8 -266 -58 -326 -81 -98 -224 -98 -305 1 -119 144 -115 492 7
627 74 82 173 97 256 39z"/>
<path d="M9400 2531 c-144 -47 -208 -205 -140 -341 41 -80 112 -120 214 -120
88 0 159 37 201 105 27 43 30 57 30 124 0 107 -36 171 -120 213 -43 22 -144
33 -185 19z"/>
<path d="M1082 2510 c-476 -67 -779 -408 -823 -926 -32 -380 94 -740 323 -922
106 -83 184 -122 333 -164 93 -26 349 -36 478 -18 84 11 225 49 254 68 9 6 5
46 -17 171 -16 90 -31 165 -32 166 -29 23 -51 24 -120 5 -104 -30 -273 -37
-362 -16 -185 44 -316 178 -371 381 -22 84 -30 273 -16 375 39 264 179 434
398 486 97 23 244 15 345 -20 116 -39 116 -39 162 150 21 86 39 163 40 172 1
20 -83 56 -186 78 -87 18 -318 26 -406 14z"/>
<path d="M3589 2499 c-118 -7 -261 -24 -301 -35 -17 -5 -18 -61 -18 -983 l0
-978 48 -7 c104 -14 393 -27 487 -21 339 20 517 78 651 212 178 178 215 479
83 685 -38 59 -121 135 -182 168 -52 28 -57 36 -26 45 11 4 46 32 78 63 94 92
141 205 141 337 0 142 -46 251 -147 345 -158 148 -384 195 -814 169z m407
-376 c58 -31 91 -74 103 -135 19 -93 -13 -172 -92 -225 -56 -37 -121 -53 -222
-53 l-75 0 0 221 0 221 123 -4 c101 -3 129 -7 163 -25z m-61 -777 c145 -38
215 -117 215 -243 0 -90 -16 -132 -69 -184 -64 -62 -119 -80 -258 -86 l-113
-6 0 267 0 266 88 0 c48 0 110 -6 137 -14z"/>
<path d="M10385 1980 c-249 -50 -438 -241 -509 -515 -78 -304 -13 -627 164
-806 74 -75 141 -116 255 -156 77 -27 87 -28 275 -28 128 0 216 5 255 14 101
22 216 62 221 75 4 10 -21 142 -51 272 -8 37 -45 45 -113 24 -216 -67 -430
-44 -528 56 -37 39 -74 113 -74 151 0 11 77 13 409 13 l410 0 7 23 c4 12 7 87
7 167 -2 386 -151 629 -429 700 -81 21 -221 25 -299 10z m158 -331 c21 -5 53
-24 72 -40 36 -32 75 -119 75 -169 l0 -30 -206 0 -206 0 6 28 c13 55 68 153
99 176 28 21 81 42 112 45 6 1 27 -4 48 -10z"/>
<path d="M11592 1970 c-182 -49 -299 -152 -353 -312 -17 -51 -20 -80 -17 -158
5 -124 34 -188 126 -278 55 -53 90 -75 218 -138 166 -81 204 -112 204 -168 0
-74 -77 -115 -191 -102 -69 8 -176 39 -231 67 -28 15 -42 16 -65 9 -27 -10
-30 -19 -67 -160 -21 -83 -37 -152 -35 -153 52 -37 151 -74 247 -93 95 -18
288 -18 377 1 89 19 198 71 255 122 159 143 187 418 61 594 -57 79 -107 115
-285 204 -131 65 -164 86 -179 113 -17 28 -17 37 -7 63 34 80 152 89 315 24
97 -39 104 -33 149 130 20 73 36 140 36 149 0 8 -18 25 -39 35 -126 65 -379
90 -519 51z"/>
<path d="M4786 1941 c-17 -18 -17 -54 -13 -513 5 -547 8 -579 72 -713 48 -100
102 -157 188 -200 187 -91 432 -56 580 83 l27 26 0 -51 c0 -88 -11 -83 190
-83 153 0 179 2 191 17 12 13 13 134 10 717 -3 616 -5 703 -19 719 -13 15 -37
17 -207 17 -173 0 -194 -2 -208 -18 -15 -17 -17 -65 -17 -478 l0 -460 -26 -52
c-65 -131 -231 -143 -292 -21 -37 74 -42 143 -42 580 0 390 -1 417 -18 432
-16 15 -46 17 -209 17 -175 0 -191 -2 -207 -19z"/>
<path d="M9267 1942 c-16 -17 -17 -81 -17 -719 0 -665 1 -701 18 -716 16 -15
46 -17 209 -17 171 0 192 2 206 18 16 17 17 81 17 719 0 665 -1 701 -18 716
-16 15 -46 17 -209 17 -171 0 -192 -2 -206 -18z"/>
</g>
</svg>
