<svg id="svg" version="1.1" xmlns="http://www.w3.org/2000/svg" xmlns:xlink="http://www.w3.org/1999/xlink" width="400" height="89.62787015043547" viewBox="0, 0, 400,89.62787015043547"><g id="svgg"><path id="path0" d="M73.167 26.500 C 73.029 26.589,72.523 26.663,72.042 26.664 C 71.560 26.666,71.167 26.742,71.167 26.833 C 71.167 26.925,70.867 27.000,70.500 27.000 C 70.133 27.000,69.833 27.075,69.833 27.167 C 69.833 27.258,69.608 27.333,69.333 27.333 C 69.058 27.333,68.833 27.408,68.833 27.500 C 68.833 27.592,68.646 27.667,68.417 27.667 C 68.188 27.667,68.000 27.742,68.000 27.833 C 68.000 27.925,67.850 28.000,67.667 28.000 C 67.483 28.000,67.333 28.075,67.333 28.167 C 67.333 28.258,67.108 28.333,66.833 28.333 C 66.558 28.333,66.333 28.408,66.333 28.500 C 66.333 28.592,66.183 28.667,66.000 28.667 C 65.817 28.667,65.667 28.742,65.667 28.833 C 65.667 28.925,65.554 29.000,65.417 29.000 C 65.279 29.000,65.167 29.074,65.167 29.163 C 65.167 29.253,64.960 29.378,64.708 29.440 C 64.456 29.502,64.129 29.691,63.980 29.860 C 63.832 30.029,63.619 30.167,63.506 30.167 C 63.393 30.167,63.090 30.392,62.833 30.667 C 62.576 30.942,62.319 31.167,62.262 31.167 C 62.168 31.167,61.404 31.869,60.125 33.131 C 59.873 33.380,59.667 33.650,59.667 33.730 C 59.667 33.811,59.528 33.999,59.359 34.147 C 59.190 34.295,58.919 34.698,58.757 35.042 C 58.595 35.385,58.396 35.667,58.314 35.667 C 58.233 35.667,58.167 35.763,58.167 35.880 C 58.167 35.997,58.017 36.201,57.833 36.333 C 57.650 36.465,57.500 36.707,57.500 36.870 C 57.500 37.033,57.425 37.167,57.333 37.167 C 57.242 37.167,57.167 37.317,57.167 37.500 C 57.167 37.683,57.092 37.833,57.000 37.833 C 56.908 37.833,56.833 37.983,56.833 38.167 C 56.833 38.350,56.758 38.500,56.667 38.500 C 56.575 38.500,56.500 38.688,56.500 38.917 C 56.500 39.146,56.425 39.333,56.333 39.333 C 56.242 39.333,56.167 39.447,56.167 39.586 C 56.167 39.724,56.102 39.968,56.023 40.127 C 55.719 40.742,55.333 42.152,55.333 42.647 C 55.333 42.933,55.258 43.167,55.167 43.167 C 55.075 43.167,55.000 43.542,55.000 44.000 C 55.000 44.458,54.925 44.833,54.833 44.833 C 54.739 44.833,54.667 45.306,54.667 45.917 C 54.667 46.528,54.594 47.000,54.500 47.000 C 54.394 47.000,54.333 48.417,54.333 50.917 C 54.333 53.417,54.394 54.833,54.500 54.833 C 54.594 54.833,54.667 55.306,54.667 55.917 C 54.667 56.528,54.739 57.000,54.833 57.000 C 54.925 57.000,55.000 57.375,55.000 57.833 C 55.000 58.292,55.067 58.667,55.149 58.667 C 55.231 58.667,55.337 58.948,55.385 59.292 C 55.506 60.162,55.892 61.614,56.042 61.764 C 56.110 61.833,56.167 62.026,56.167 62.194 C 56.167 62.362,56.228 62.500,56.302 62.500 C 56.377 62.500,56.541 62.762,56.667 63.083 C 56.793 63.404,56.957 63.667,57.031 63.667 C 57.106 63.667,57.167 63.817,57.167 64.000 C 57.167 64.183,57.242 64.333,57.333 64.333 C 57.425 64.333,57.500 64.483,57.500 64.667 C 57.500 64.850,57.575 65.000,57.667 65.000 C 57.758 65.000,57.833 65.133,57.833 65.297 C 57.833 65.460,57.983 65.701,58.167 65.833 C 58.350 65.965,58.500 66.170,58.500 66.287 C 58.500 66.404,58.568 66.500,58.650 66.500 C 58.733 66.500,58.876 66.717,58.968 66.981 C 59.061 67.246,59.574 67.882,60.110 68.396 C 60.645 68.910,61.389 69.631,61.763 69.998 C 62.137 70.366,62.500 70.667,62.571 70.667 C 62.642 70.667,62.910 70.892,63.167 71.167 C 63.424 71.442,63.719 71.667,63.824 71.667 C 63.928 71.667,64.171 71.813,64.363 71.992 C 64.555 72.170,64.927 72.364,65.189 72.422 C 65.452 72.479,65.667 72.596,65.667 72.680 C 65.667 72.764,65.817 72.833,66.000 72.833 C 66.183 72.833,66.333 72.908,66.333 73.000 C 66.333 73.092,66.558 73.167,66.833 73.167 C 67.108 73.167,67.333 73.242,67.333 73.333 C 67.333 73.425,67.483 73.500,67.667 73.500 C 67.850 73.500,68.000 73.575,68.000 73.667 C 68.000 73.758,68.188 73.833,68.417 73.833 C 68.646 73.833,68.833 73.908,68.833 74.000 C 68.833 74.092,69.133 74.167,69.500 74.167 C 69.867 74.167,70.167 74.242,70.167 74.333 C 70.167 74.425,70.500 74.500,70.907 74.500 C 71.314 74.500,71.693 74.575,71.750 74.667 C 71.807 74.758,72.411 74.833,73.093 74.833 C 73.809 74.833,74.333 74.904,74.333 75.000 C 74.333 75.100,75.000 75.167,76.000 75.167 C 77.000 75.167,77.667 75.100,77.667 75.000 C 77.667 74.903,78.222 74.833,79.000 74.833 C 79.778 74.833,80.333 74.764,80.333 74.667 C 80.333 74.575,80.671 74.500,81.083 74.500 C 81.496 74.500,81.833 74.425,81.833 74.333 C 81.833 74.242,82.133 74.167,82.500 74.167 C 82.867 74.167,83.167 74.092,83.167 74.000 C 83.167 73.908,83.354 73.833,83.583 73.833 C 83.813 73.833,84.000 73.758,84.000 73.667 C 84.000 73.575,84.150 73.500,84.333 73.500 C 84.517 73.500,84.667 73.425,84.667 73.333 C 84.667 73.242,84.892 73.167,85.167 73.167 C 85.442 73.167,85.667 73.092,85.667 73.000 C 85.667 72.908,85.817 72.833,86.000 72.833 C 86.183 72.833,86.333 72.768,86.333 72.688 C 86.333 72.607,86.540 72.500,86.792 72.449 C 87.044 72.398,87.416 72.201,87.618 72.011 C 87.820 71.822,88.085 71.667,88.206 71.667 C 88.327 71.667,88.535 71.517,88.667 71.333 C 88.799 71.150,89.012 71.000,89.141 71.000 C 89.270 71.000,89.715 70.625,90.131 70.167 C 90.547 69.708,90.974 69.333,91.081 69.333 C 91.292 69.333,92.000 68.641,92.000 68.435 C 92.000 68.364,92.281 68.032,92.625 67.695 C 93.281 67.053,94.167 65.794,94.167 65.504 C 94.167 65.410,94.242 65.333,94.333 65.333 C 94.425 65.333,94.500 65.200,94.500 65.037 C 94.500 64.874,94.650 64.632,94.833 64.500 C 95.017 64.368,95.167 64.126,95.167 63.963 C 95.167 63.800,95.242 63.667,95.333 63.667 C 95.425 63.667,95.500 63.517,95.500 63.333 C 95.500 63.150,95.575 63.000,95.667 63.000 C 95.758 63.000,95.833 62.813,95.833 62.583 C 95.833 62.354,95.908 62.167,96.000 62.167 C 96.092 62.167,96.167 62.053,96.167 61.914 C 96.167 61.776,96.233 61.532,96.313 61.373 C 96.626 60.754,97.002 59.391,97.001 58.875 C 97.000 58.577,97.075 58.333,97.167 58.333 C 97.258 58.333,97.333 57.996,97.333 57.583 C 97.333 57.171,97.408 56.833,97.500 56.833 C 97.595 56.833,97.667 56.333,97.667 55.667 C 97.667 55.000,97.738 54.500,97.833 54.500 C 97.940 54.500,98.000 53.028,98.000 50.417 C 98.000 47.806,97.940 46.333,97.833 46.333 C 97.739 46.333,97.667 45.861,97.667 45.250 C 97.667 44.639,97.594 44.167,97.500 44.167 C 97.408 44.167,97.333 43.867,97.333 43.500 C 97.333 43.133,97.268 42.833,97.188 42.833 C 97.108 42.833,96.992 42.386,96.930 41.838 C 96.869 41.291,96.746 40.799,96.659 40.745 C 96.572 40.691,96.500 40.426,96.500 40.157 C 96.500 39.887,96.425 39.667,96.333 39.667 C 96.242 39.667,96.167 39.479,96.167 39.250 C 96.167 39.021,96.092 38.833,96.000 38.833 C 95.908 38.833,95.833 38.683,95.833 38.500 C 95.833 38.317,95.758 38.167,95.667 38.167 C 95.575 38.167,95.500 38.017,95.500 37.833 C 95.500 37.650,95.425 37.500,95.333 37.500 C 95.242 37.500,95.167 37.350,95.167 37.167 C 95.167 36.983,95.092 36.833,95.000 36.833 C 94.908 36.833,94.833 36.700,94.833 36.537 C 94.833 36.374,94.683 36.132,94.500 36.000 C 94.317 35.868,94.167 35.664,94.167 35.547 C 94.167 35.429,94.101 35.333,94.020 35.333 C 93.940 35.333,93.777 35.099,93.658 34.812 C 93.539 34.525,93.286 34.131,93.096 33.937 C 92.906 33.742,92.644 33.377,92.514 33.125 C 92.383 32.873,92.216 32.667,92.142 32.667 C 92.068 32.667,91.595 32.254,91.091 31.750 C 90.586 31.246,90.127 30.833,90.070 30.833 C 90.014 30.833,89.757 30.608,89.500 30.333 C 89.243 30.058,88.945 29.833,88.838 29.833 C 88.731 29.833,88.530 29.721,88.393 29.583 C 88.255 29.446,87.998 29.333,87.821 29.333 C 87.645 29.333,87.500 29.258,87.500 29.167 C 87.500 29.075,87.388 29.000,87.250 29.000 C 87.112 29.000,87.000 28.925,87.000 28.833 C 87.000 28.742,86.850 28.667,86.667 28.667 C 86.483 28.667,86.333 28.592,86.333 28.500 C 86.333 28.408,86.183 28.333,86.000 28.333 C 85.817 28.333,85.667 28.258,85.667 28.167 C 85.667 28.075,85.517 28.000,85.333 28.000 C 85.150 28.000,85.000 27.925,85.000 27.833 C 85.000 27.742,84.775 27.667,84.500 27.667 C 84.225 27.667,84.000 27.592,84.000 27.500 C 84.000 27.408,83.813 27.333,83.583 27.333 C 83.354 27.333,83.167 27.258,83.167 27.167 C 83.167 27.075,82.867 27.000,82.500 27.000 C 82.133 27.000,81.833 26.925,81.833 26.833 C 81.833 26.742,81.425 26.667,80.927 26.667 C 80.428 26.667,79.973 26.592,79.917 26.500 C 79.782 26.282,73.504 26.282,73.167 26.500 M77.500 38.000 C 77.500 38.092,77.638 38.167,77.808 38.167 C 78.576 38.167,81.000 40.110,81.000 40.726 C 81.000 40.854,81.112 41.053,81.250 41.167 C 81.387 41.281,81.500 41.477,81.500 41.604 C 81.500 41.730,81.575 41.833,81.667 41.833 C 81.758 41.833,81.833 42.058,81.833 42.333 C 81.833 42.608,81.908 42.833,82.000 42.833 C 82.092 42.833,82.167 42.983,82.167 43.167 C 82.167 43.350,82.242 43.500,82.333 43.500 C 82.425 43.500,82.500 43.762,82.500 44.083 C 82.500 44.404,82.575 44.667,82.667 44.667 C 82.758 44.667,82.833 44.967,82.833 45.333 C 82.833 45.700,82.908 46.000,83.000 46.000 C 83.094 46.000,83.167 46.472,83.167 47.083 C 83.167 47.694,83.239 48.167,83.333 48.167 C 83.437 48.167,83.500 49.083,83.500 50.583 C 83.500 52.083,83.437 53.000,83.333 53.000 C 83.239 53.000,83.167 53.472,83.167 54.083 C 83.167 54.694,83.094 55.167,83.000 55.167 C 82.908 55.167,82.833 55.467,82.833 55.833 C 82.833 56.200,82.758 56.500,82.667 56.500 C 82.575 56.500,82.500 56.762,82.500 57.083 C 82.500 57.404,82.425 57.667,82.333 57.667 C 82.242 57.667,82.167 57.817,82.167 58.000 C 82.167 58.183,82.092 58.333,82.000 58.333 C 81.908 58.333,81.833 58.558,81.833 58.833 C 81.833 59.108,81.758 59.333,81.667 59.333 C 81.575 59.333,81.500 59.483,81.500 59.667 C 81.500 59.850,81.430 60.000,81.345 60.000 C 81.259 60.000,81.139 60.159,81.077 60.354 C 80.826 61.145,78.590 63.123,77.813 63.242 C 77.411 63.303,76.873 63.435,76.617 63.534 C 76.286 63.661,76.043 63.662,75.783 63.537 C 75.582 63.440,75.117 63.318,74.751 63.267 C 74.385 63.216,74.060 63.098,74.029 63.004 C 73.998 62.910,73.865 62.833,73.733 62.833 C 73.420 62.833,71.402 60.813,71.257 60.354 C 71.195 60.159,71.074 60.000,70.989 60.000 C 70.903 60.000,70.833 59.850,70.833 59.667 C 70.833 59.483,70.758 59.333,70.667 59.333 C 70.575 59.333,70.500 59.108,70.500 58.833 C 70.500 58.558,70.425 58.333,70.333 58.333 C 70.242 58.333,70.167 58.183,70.167 58.000 C 70.167 57.817,70.092 57.667,70.000 57.667 C 69.908 57.667,69.833 57.404,69.833 57.083 C 69.833 56.762,69.758 56.500,69.667 56.500 C 69.575 56.500,69.500 56.200,69.500 55.833 C 69.500 55.467,69.425 55.167,69.333 55.167 C 69.239 55.167,69.167 54.694,69.167 54.083 C 69.167 53.472,69.094 53.000,69.000 53.000 C 68.897 53.000,68.833 52.083,68.833 50.583 C 68.833 49.083,68.897 48.167,69.000 48.167 C 69.094 48.167,69.167 47.694,69.167 47.083 C 69.167 46.472,69.239 46.000,69.333 46.000 C 69.425 46.000,69.500 45.700,69.500 45.333 C 69.500 44.967,69.575 44.667,69.667 44.667 C 69.758 44.667,69.833 44.479,69.833 44.250 C 69.833 44.021,69.908 43.833,70.000 43.833 C 70.092 43.833,70.167 43.608,70.167 43.333 C 70.167 43.058,70.242 42.833,70.333 42.833 C 70.425 42.833,70.500 42.683,70.500 42.500 C 70.500 42.317,70.575 42.167,70.667 42.167 C 70.758 42.167,70.836 42.035,70.839 41.875 C 70.842 41.715,70.954 41.438,71.089 41.260 C 71.223 41.082,71.333 40.836,71.333 40.715 C 71.333 40.593,71.744 40.082,72.246 39.580 C 72.749 39.078,73.259 38.667,73.381 38.667 C 73.503 38.667,73.749 38.557,73.926 38.422 C 74.104 38.287,74.381 38.175,74.542 38.172 C 74.702 38.169,74.833 38.092,74.833 38.000 C 74.833 37.903,75.389 37.833,76.167 37.833 C 76.944 37.833,77.500 37.903,77.500 38.000 " stroke="none" fill="#fc9c2c" fill-rule="evenodd"></path><path id="path1" d="M36.000 9.833 C 36.000 9.931,35.417 10.000,34.583 10.000 C 33.750 10.000,33.167 10.069,33.167 10.167 C 33.167 10.258,32.792 10.333,32.333 10.333 C 31.875 10.333,31.500 10.401,31.500 10.483 C 31.500 10.565,30.975 10.686,30.333 10.750 C 29.691 10.815,29.124 10.935,29.073 11.017 C 29.022 11.099,28.760 11.167,28.490 11.167 C 28.221 11.167,28.000 11.242,28.000 11.333 C 28.000 11.425,27.813 11.500,27.583 11.500 C 27.354 11.500,27.167 11.575,27.167 11.667 C 27.167 11.758,27.017 11.833,26.833 11.833 C 26.650 11.833,26.500 11.908,26.500 12.000 C 26.500 12.092,26.275 12.167,26.000 12.167 C 25.725 12.167,25.500 12.242,25.500 12.333 C 25.500 12.425,25.350 12.500,25.167 12.500 C 24.983 12.500,24.833 12.575,24.833 12.667 C 24.833 12.758,24.683 12.833,24.500 12.833 C 24.317 12.833,24.167 12.908,24.167 13.000 C 24.167 13.092,24.054 13.167,23.917 13.167 C 23.779 13.167,23.667 13.242,23.667 13.333 C 23.667 13.425,23.517 13.500,23.333 13.500 C 23.150 13.500,23.000 13.575,23.000 13.667 C 23.000 13.758,22.855 13.833,22.679 13.833 C 22.502 13.833,22.245 13.946,22.107 14.083 C 21.970 14.221,21.757 14.333,21.635 14.333 C 21.513 14.333,21.320 14.483,21.205 14.667 C 21.091 14.850,20.902 15.000,20.785 15.000 C 20.669 15.000,20.465 15.150,20.333 15.333 C 20.201 15.517,19.995 15.667,19.875 15.667 C 19.756 15.667,19.320 16.004,18.908 16.417 C 18.495 16.829,18.090 17.167,18.006 17.167 C 17.823 17.167,16.000 19.026,16.000 19.212 C 16.000 19.285,15.636 19.698,15.190 20.130 C 14.745 20.563,14.327 21.085,14.262 21.292 C 14.197 21.498,14.074 21.667,13.989 21.667 C 13.903 21.667,13.833 21.800,13.833 21.963 C 13.833 22.126,13.683 22.368,13.500 22.500 C 13.317 22.632,13.167 22.820,13.167 22.917 C 13.167 23.014,13.017 23.201,12.833 23.333 C 12.650 23.465,12.500 23.707,12.500 23.870 C 12.500 24.033,12.425 24.167,12.333 24.167 C 12.242 24.167,12.167 24.317,12.167 24.500 C 12.167 24.683,12.092 24.833,12.000 24.833 C 11.908 24.833,11.833 24.983,11.833 25.167 C 11.833 25.350,11.758 25.500,11.667 25.500 C 11.575 25.500,11.500 25.650,11.500 25.833 C 11.500 26.017,11.428 26.167,11.341 26.167 C 11.253 26.167,11.133 26.429,11.072 26.750 C 11.012 27.071,10.896 27.333,10.815 27.333 C 10.733 27.333,10.667 27.483,10.667 27.667 C 10.667 27.850,10.592 28.000,10.500 28.000 C 10.408 28.000,10.333 28.225,10.333 28.500 C 10.333 28.775,10.258 29.000,10.167 29.000 C 10.075 29.000,10.000 29.188,10.000 29.417 C 10.000 29.646,9.925 29.833,9.833 29.833 C 9.742 29.833,9.667 30.058,9.667 30.333 C 9.667 30.608,9.592 30.833,9.500 30.833 C 9.408 30.833,9.333 31.133,9.333 31.500 C 9.333 31.867,9.258 32.167,9.167 32.167 C 9.075 32.167,9.000 32.429,9.000 32.750 C 9.000 33.071,8.925 33.333,8.833 33.333 C 8.742 33.333,8.667 33.708,8.667 34.167 C 8.667 34.625,8.598 35.000,8.515 35.000 C 8.431 35.000,8.328 35.431,8.284 35.958 C 8.241 36.485,8.155 37.343,8.093 37.865 C 7.836 40.032,7.909 48.924,8.186 49.095 C 8.267 49.145,8.333 49.594,8.333 50.093 C 8.333 50.592,8.408 51.000,8.500 51.000 C 8.592 51.000,8.667 51.333,8.667 51.740 C 8.667 52.147,8.742 52.527,8.833 52.583 C 8.925 52.640,9.000 52.940,9.000 53.250 C 9.000 53.560,9.075 53.860,9.167 53.917 C 9.258 53.973,9.333 54.278,9.333 54.593 C 9.333 54.909,9.408 55.167,9.500 55.167 C 9.592 55.167,9.667 55.392,9.667 55.667 C 9.667 55.942,9.742 56.167,9.833 56.167 C 9.925 56.167,10.000 56.354,10.000 56.583 C 10.000 56.813,10.075 57.000,10.167 57.000 C 10.258 57.000,10.333 57.150,10.333 57.333 C 10.333 57.517,10.408 57.667,10.500 57.667 C 10.592 57.667,10.667 57.892,10.667 58.167 C 10.667 58.442,10.742 58.667,10.833 58.667 C 10.925 58.667,11.000 58.779,11.000 58.916 C 11.000 59.263,11.551 60.500,11.706 60.500 C 11.776 60.500,11.833 60.650,11.833 60.833 C 11.833 61.017,11.908 61.167,12.000 61.167 C 12.092 61.167,12.167 61.265,12.167 61.385 C 12.167 61.505,12.298 61.749,12.458 61.927 C 12.619 62.105,12.862 62.475,13.000 62.750 C 13.137 63.025,13.456 63.449,13.708 63.692 C 13.960 63.935,14.167 64.235,14.168 64.359 C 14.169 64.482,14.431 64.860,14.751 65.197 C 15.071 65.535,15.333 65.855,15.333 65.909 C 15.333 66.039,17.466 68.167,17.597 68.167 C 17.654 68.167,17.963 68.429,18.283 68.750 C 18.604 69.071,18.961 69.333,19.075 69.333 C 19.190 69.333,19.503 69.540,19.770 69.792 C 20.037 70.044,20.479 70.362,20.753 70.499 C 21.026 70.636,21.371 70.879,21.520 71.041 C 21.668 71.202,21.859 71.333,21.945 71.333 C 22.204 71.333,22.997 71.741,22.999 71.875 C 22.999 71.944,23.150 72.000,23.333 72.000 C 23.517 72.000,23.667 72.079,23.667 72.177 C 23.667 72.274,23.736 72.310,23.822 72.257 C 23.907 72.204,24.024 72.237,24.082 72.331 C 24.139 72.424,24.407 72.500,24.677 72.500 C 24.946 72.500,25.167 72.575,25.167 72.667 C 25.167 72.758,25.392 72.833,25.667 72.833 C 25.942 72.833,26.167 72.908,26.167 73.000 C 26.167 73.092,26.317 73.167,26.500 73.167 C 26.683 73.167,26.833 73.242,26.833 73.333 C 26.833 73.425,27.096 73.500,27.417 73.500 C 27.738 73.500,28.000 73.575,28.000 73.667 C 28.000 73.758,28.300 73.833,28.667 73.833 C 29.033 73.833,29.333 73.908,29.333 74.000 C 29.333 74.092,29.591 74.167,29.907 74.167 C 30.222 74.167,30.527 74.242,30.583 74.333 C 30.640 74.425,31.169 74.500,31.760 74.500 C 32.364 74.500,32.833 74.573,32.833 74.667 C 32.833 74.774,34.667 74.833,38.000 74.833 C 41.333 74.833,43.167 74.774,43.167 74.667 C 43.167 74.571,43.667 74.500,44.333 74.500 C 45.000 74.500,45.500 74.429,45.500 74.333 C 45.500 74.242,45.871 74.167,46.323 74.167 C 46.776 74.167,47.193 74.092,47.250 74.000 C 47.307 73.908,47.649 73.833,48.010 73.833 C 48.371 73.833,48.667 73.758,48.667 73.667 C 48.667 73.575,48.854 73.500,49.083 73.500 C 49.313 73.500,49.500 73.425,49.500 73.333 C 49.500 73.242,49.725 73.167,50.000 73.167 C 50.275 73.167,50.500 73.092,50.500 73.000 C 50.500 72.908,50.725 72.833,51.000 72.833 C 51.275 72.833,51.500 72.767,51.500 72.685 C 51.500 72.604,51.762 72.488,52.083 72.428 C 52.644 72.322,53.045 71.000,52.516 71.000 C 52.432 71.000,52.311 70.269,52.246 69.375 C 52.181 68.481,52.066 67.673,51.990 67.578 C 51.915 67.484,51.835 67.015,51.813 66.537 C 51.792 66.058,51.712 65.667,51.637 65.667 C 51.562 65.667,51.500 65.334,51.500 64.927 C 51.500 64.519,51.425 64.140,51.333 64.083 C 51.242 64.027,51.167 63.572,51.167 63.073 C 51.167 62.575,51.092 62.167,51.000 62.167 C 50.908 62.167,50.833 61.942,50.833 61.667 C 50.833 61.278,50.759 61.167,50.500 61.167 C 50.317 61.167,50.167 61.092,50.167 61.000 C 50.167 60.908,50.017 60.833,49.833 60.833 C 49.650 60.833,49.500 60.758,49.500 60.667 C 49.500 60.575,49.237 60.500,48.917 60.500 C 48.596 60.500,48.333 60.575,48.333 60.667 C 48.333 60.758,48.108 60.833,47.833 60.833 C 47.558 60.833,47.333 60.908,47.333 61.000 C 47.333 61.092,47.113 61.167,46.843 61.167 C 46.574 61.167,46.307 61.242,46.250 61.333 C 46.193 61.425,45.851 61.500,45.490 61.500 C 45.129 61.500,44.833 61.575,44.833 61.667 C 44.833 61.761,44.361 61.833,43.750 61.833 C 43.139 61.833,42.667 61.906,42.667 62.000 C 42.667 62.105,41.583 62.167,39.750 62.167 C 37.917 62.167,36.833 62.105,36.833 62.000 C 36.833 61.908,36.500 61.833,36.093 61.833 C 35.686 61.833,35.307 61.758,35.250 61.667 C 35.193 61.575,34.889 61.500,34.573 61.500 C 34.258 61.500,34.000 61.425,34.000 61.333 C 34.000 61.242,33.862 61.167,33.694 61.167 C 33.526 61.167,32.849 60.904,32.190 60.583 C 31.531 60.262,30.897 60.000,30.782 60.000 C 30.668 60.000,30.465 59.850,30.333 59.667 C 30.201 59.483,30.030 59.333,29.952 59.333 C 29.875 59.333,29.442 58.953,28.989 58.489 C 28.537 58.024,28.167 57.681,28.167 57.725 C 28.167 58.131,26.684 56.231,26.074 55.042 C 25.921 54.744,25.729 54.500,25.648 54.500 C 25.566 54.500,25.500 54.387,25.500 54.250 C 25.500 54.112,25.425 54.000,25.333 54.000 C 25.242 54.000,25.167 53.850,25.167 53.667 C 25.167 53.483,25.092 53.333,25.000 53.333 C 24.908 53.333,24.833 53.150,24.833 52.927 C 24.833 52.703,24.758 52.473,24.667 52.417 C 24.575 52.360,24.500 52.168,24.500 51.990 C 24.500 51.812,24.425 51.667,24.333 51.667 C 24.242 51.667,24.167 51.479,24.167 51.250 C 24.167 51.021,24.107 50.833,24.033 50.833 C 23.878 50.833,23.521 48.762,23.394 47.125 C 23.345 46.506,23.237 46.000,23.153 46.000 C 23.065 46.000,23.000 44.514,23.000 42.500 C 23.000 40.575,23.063 39.000,23.139 39.000 C 23.216 39.000,23.295 38.533,23.316 37.963 C 23.337 37.393,23.414 36.849,23.487 36.755 C 23.561 36.661,23.669 36.099,23.728 35.507 C 23.787 34.915,23.910 34.357,24.001 34.266 C 24.092 34.175,24.167 33.927,24.167 33.717 C 24.167 33.506,24.242 33.333,24.333 33.333 C 24.425 33.333,24.500 33.108,24.500 32.833 C 24.500 32.558,24.575 32.333,24.667 32.333 C 24.758 32.333,24.833 32.179,24.833 31.990 C 24.833 31.801,24.908 31.693,25.000 31.750 C 25.096 31.809,25.167 31.653,25.167 31.380 C 25.167 31.098,25.301 30.810,25.500 30.667 C 25.683 30.535,25.833 30.293,25.833 30.130 C 25.833 29.967,25.900 29.833,25.981 29.833 C 26.062 29.833,26.173 29.702,26.228 29.542 C 26.541 28.633,28.069 26.921,29.876 25.455 C 30.241 25.159,30.637 24.823,30.758 24.708 C 30.878 24.594,31.094 24.500,31.238 24.500 C 31.382 24.500,31.500 24.425,31.500 24.333 C 31.500 24.242,31.650 24.167,31.833 24.167 C 32.017 24.167,32.167 24.092,32.167 24.000 C 32.167 23.908,32.317 23.833,32.500 23.833 C 32.683 23.833,32.833 23.758,32.833 23.667 C 32.833 23.575,32.946 23.500,33.083 23.500 C 33.221 23.500,33.333 23.432,33.333 23.350 C 33.333 23.267,33.783 23.147,34.334 23.083 C 34.884 23.019,35.376 22.900,35.427 22.817 C 35.478 22.734,35.890 22.667,36.343 22.667 C 36.796 22.667,37.167 22.592,37.167 22.500 C 37.167 22.396,38.194 22.333,39.917 22.333 C 41.639 22.333,42.667 22.396,42.667 22.500 C 42.667 22.592,43.079 22.667,43.583 22.667 C 44.087 22.667,44.500 22.731,44.500 22.810 C 44.500 22.888,44.969 23.001,45.542 23.061 C 46.115 23.121,46.608 23.244,46.639 23.335 C 46.669 23.426,46.913 23.500,47.181 23.500 C 47.448 23.500,47.667 23.575,47.667 23.667 C 47.667 23.758,47.817 23.833,48.000 23.833 C 48.183 23.833,48.333 23.908,48.333 24.000 C 48.333 24.092,48.596 24.167,48.917 24.167 C 49.237 24.167,49.500 24.092,49.500 24.000 C 49.500 23.908,49.650 23.833,49.833 23.833 C 50.017 23.833,50.167 23.758,50.167 23.667 C 50.167 23.575,50.317 23.500,50.500 23.500 C 50.770 23.500,50.833 23.389,50.833 22.917 C 50.833 22.596,50.908 22.333,51.000 22.333 C 51.092 22.333,51.167 22.033,51.167 21.667 C 51.167 21.300,51.242 21.000,51.333 21.000 C 51.425 21.000,51.500 20.742,51.500 20.427 C 51.500 20.111,51.575 19.807,51.667 19.750 C 51.758 19.693,51.833 19.389,51.833 19.073 C 51.833 18.758,51.900 18.500,51.980 18.500 C 52.061 18.500,52.180 17.938,52.245 17.250 C 52.309 16.563,52.430 16.000,52.514 16.000 C 52.598 16.000,52.667 15.700,52.667 15.333 C 52.667 14.967,52.742 14.667,52.833 14.667 C 52.925 14.667,53.000 14.409,53.000 14.093 C 53.000 13.778,53.075 13.473,53.167 13.417 C 53.607 13.144,53.160 12.167,52.595 12.167 C 52.451 12.167,52.333 12.100,52.333 12.018 C 52.333 11.937,51.996 11.770,51.583 11.649 C 51.171 11.527,50.833 11.369,50.833 11.297 C 50.833 11.225,50.623 11.167,50.367 11.167 C 50.110 11.167,49.823 11.090,49.730 10.997 C 49.636 10.903,49.059 10.780,48.447 10.722 C 47.834 10.665,47.333 10.554,47.333 10.476 C 47.333 10.397,47.000 10.333,46.593 10.333 C 46.186 10.333,45.807 10.258,45.750 10.167 C 45.693 10.075,44.976 10.000,44.157 10.000 C 43.274 10.000,42.667 9.932,42.667 9.833 C 42.667 9.728,41.444 9.667,39.333 9.667 C 37.222 9.667,36.000 9.728,36.000 9.833 M117.333 10.167 C 117.333 10.272,116.222 10.333,114.333 10.333 C 112.683 10.333,111.333 10.397,111.333 10.474 C 111.333 10.586,107.732 10.870,106.462 10.857 C 106.303 10.856,106.130 10.925,106.077 11.011 C 106.024 11.096,105.572 11.167,105.073 11.167 C 104.575 11.167,104.167 11.242,104.167 11.333 C 104.167 11.425,103.979 11.500,103.750 11.500 L 103.333 11.500 103.333 42.667 L 103.333 73.833 104.333 73.833 C 104.889 73.833,105.333 73.907,105.333 74.000 C 105.333 74.099,105.972 74.167,106.917 74.167 C 107.861 74.167,108.500 74.234,108.500 74.333 C 108.500 74.438,109.608 74.500,111.490 74.500 C 113.304 74.500,114.521 74.566,114.583 74.667 C 114.645 74.767,115.804 74.833,117.500 74.833 C 119.196 74.833,120.355 74.767,120.417 74.667 C 120.477 74.569,121.471 74.500,122.833 74.500 C 124.196 74.500,125.189 74.431,125.250 74.333 C 125.307 74.242,125.911 74.167,126.593 74.167 C 127.309 74.167,127.833 74.096,127.833 74.000 C 127.833 73.908,128.246 73.833,128.750 73.833 C 129.254 73.833,129.667 73.758,129.667 73.667 C 129.667 73.575,129.967 73.500,130.333 73.500 C 130.700 73.500,131.000 73.425,131.000 73.333 C 131.000 73.242,131.262 73.167,131.583 73.167 C 131.904 73.167,132.167 73.092,132.167 73.000 C 132.167 72.908,132.392 72.833,132.667 72.833 C 132.942 72.833,133.167 72.768,133.167 72.688 C 133.167 72.608,133.539 72.494,133.993 72.433 C 134.448 72.373,134.865 72.251,134.920 72.162 C 134.975 72.073,135.165 72.000,135.343 72.000 C 135.521 72.000,135.667 71.925,135.667 71.833 C 135.667 71.742,135.817 71.667,136.000 71.667 C 136.183 71.667,136.333 71.592,136.333 71.500 C 136.333 71.408,136.483 71.333,136.667 71.333 C 136.850 71.333,137.000 71.258,137.000 71.167 C 137.000 71.075,137.150 71.000,137.333 71.000 C 137.517 71.000,137.667 70.925,137.667 70.833 C 137.667 70.742,137.763 70.667,137.880 70.667 C 137.997 70.667,138.201 70.517,138.333 70.333 C 138.465 70.150,138.673 70.000,138.794 70.000 C 138.916 70.000,139.196 69.831,139.416 69.625 C 140.018 69.063,140.308 68.833,140.419 68.833 C 140.598 68.833,142.000 67.337,142.000 67.147 C 142.000 67.045,142.300 66.699,142.667 66.378 C 143.033 66.056,143.333 65.690,143.333 65.563 C 143.333 65.437,143.400 65.333,143.480 65.333 C 143.617 65.333,144.145 64.330,144.687 63.042 C 144.812 62.744,144.971 62.500,145.041 62.500 C 145.110 62.500,145.167 62.275,145.167 62.000 C 145.167 61.725,145.242 61.500,145.333 61.500 C 145.425 61.500,145.500 61.275,145.500 61.000 C 145.500 60.725,145.575 60.500,145.667 60.500 C 145.758 60.500,145.833 60.237,145.833 59.917 C 145.833 59.596,145.908 59.333,146.000 59.333 C 146.093 59.333,146.167 58.889,146.167 58.333 C 146.167 57.778,146.241 57.333,146.333 57.333 C 146.437 57.333,146.500 56.444,146.500 55.000 C 146.500 53.556,146.437 52.667,146.333 52.667 C 146.242 52.667,146.167 52.254,146.167 51.750 C 146.167 51.246,146.092 50.833,146.000 50.833 C 145.908 50.833,145.833 50.608,145.833 50.333 C 145.833 50.058,145.758 49.833,145.667 49.833 C 145.575 49.833,145.500 49.608,145.500 49.333 C 145.500 49.058,145.425 48.833,145.333 48.833 C 145.242 48.833,145.167 48.646,145.167 48.417 C 145.167 48.188,145.092 48.000,145.000 48.000 C 144.908 48.000,144.833 47.850,144.833 47.667 C 144.833 47.483,144.758 47.333,144.667 47.333 C 144.575 47.333,144.500 47.189,144.500 47.012 C 144.500 46.835,144.406 46.591,144.292 46.470 C 144.177 46.349,143.977 46.044,143.847 45.792 C 143.717 45.540,143.548 45.333,143.472 45.333 C 143.396 45.333,143.333 45.256,143.333 45.162 C 143.333 44.893,140.266 41.887,139.861 41.759 C 139.662 41.696,139.500 41.574,139.500 41.489 C 139.500 41.403,139.378 41.333,139.228 41.333 C 139.078 41.333,138.834 41.196,138.686 41.029 C 138.538 40.862,138.173 40.618,137.875 40.488 C 137.577 40.358,137.333 40.195,137.333 40.126 C 137.333 40.057,137.183 40.000,137.000 40.000 C 136.817 40.000,136.667 39.925,136.667 39.833 C 136.667 39.742,136.817 39.667,137.000 39.667 C 137.183 39.667,137.333 39.592,137.333 39.500 C 137.333 39.408,137.418 39.333,137.522 39.333 C 137.626 39.333,137.832 39.194,137.980 39.025 C 138.129 38.855,138.485 38.595,138.773 38.447 C 139.447 38.100,140.766 36.780,141.113 36.107 C 141.262 35.819,141.522 35.485,141.691 35.366 C 141.861 35.246,142.000 35.040,142.000 34.907 C 142.000 34.775,142.075 34.667,142.167 34.667 C 142.258 34.667,142.333 34.517,142.333 34.333 C 142.333 34.150,142.408 34.000,142.500 34.000 C 142.592 34.000,142.667 33.850,142.667 33.667 C 142.667 33.483,142.742 33.333,142.833 33.333 C 142.925 33.333,143.000 33.183,143.000 33.000 C 143.000 32.817,143.060 32.667,143.133 32.667 C 143.305 32.667,143.667 31.669,143.667 31.197 C 143.667 30.997,143.742 30.833,143.833 30.833 C 143.925 30.833,144.000 30.538,144.000 30.177 C 144.000 29.815,144.075 29.473,144.167 29.417 C 144.382 29.284,144.390 24.123,144.176 23.908 C 144.089 23.821,143.999 23.431,143.976 23.042 C 143.954 22.652,143.874 22.333,143.801 22.333 C 143.727 22.333,143.667 22.108,143.667 21.833 C 143.667 21.558,143.592 21.333,143.500 21.333 C 143.408 21.333,143.333 21.198,143.333 21.033 C 143.333 20.661,142.961 19.836,142.792 19.835 C 142.723 19.834,142.667 19.683,142.667 19.500 C 142.667 19.317,142.592 19.167,142.500 19.167 C 142.408 19.167,142.333 19.068,142.333 18.948 C 142.333 18.828,142.183 18.569,142.000 18.372 C 141.817 18.175,141.667 17.932,141.667 17.832 C 141.667 17.732,140.917 16.904,140.000 15.992 C 139.083 15.080,138.333 14.376,138.333 14.429 C 138.333 14.481,138.136 14.369,137.894 14.179 C 137.653 13.989,137.369 13.833,137.264 13.833 C 137.159 13.833,136.965 13.683,136.833 13.500 C 136.701 13.317,136.460 13.167,136.297 13.167 C 136.133 13.167,136.000 13.092,136.000 13.000 C 136.000 12.908,135.850 12.833,135.667 12.833 C 135.483 12.833,135.333 12.758,135.333 12.667 C 135.333 12.575,135.183 12.500,135.000 12.500 C 134.817 12.500,134.667 12.425,134.667 12.333 C 134.667 12.242,134.479 12.167,134.250 12.167 C 134.021 12.167,133.833 12.092,133.833 12.000 C 133.833 11.908,133.683 11.833,133.500 11.833 C 133.317 11.833,133.167 11.758,133.167 11.667 C 133.167 11.575,132.867 11.500,132.500 11.500 C 132.133 11.500,131.833 11.434,131.833 11.352 C 131.833 11.271,131.590 11.156,131.292 11.096 C 129.780 10.793,128.998 10.690,128.125 10.679 C 127.598 10.672,127.167 10.592,127.167 10.500 C 127.167 10.397,126.306 10.333,124.917 10.333 C 123.528 10.333,122.667 10.270,122.667 10.167 C 122.667 10.063,121.667 10.000,120.000 10.000 C 118.333 10.000,117.333 10.063,117.333 10.167 M124.333 21.833 C 124.333 21.925,124.633 22.000,125.000 22.000 C 125.367 22.000,125.667 22.075,125.667 22.167 C 125.667 22.258,125.817 22.333,126.000 22.333 C 126.183 22.333,126.333 22.393,126.333 22.467 C 126.333 22.540,126.600 22.696,126.925 22.814 C 127.442 23.001,128.089 23.551,128.792 24.401 C 128.906 24.539,129.000 24.768,129.000 24.910 C 129.000 25.051,129.075 25.167,129.167 25.167 C 129.258 25.167,129.333 25.312,129.333 25.490 C 129.333 25.668,129.408 25.860,129.500 25.917 C 129.592 25.973,129.667 26.390,129.667 26.843 C 129.667 27.296,129.742 27.667,129.833 27.667 C 129.925 27.667,130.000 27.892,130.000 28.167 C 130.000 28.442,129.925 28.667,129.833 28.667 C 129.742 28.667,129.667 29.004,129.667 29.417 C 129.667 29.829,129.592 30.167,129.500 30.167 C 129.408 30.167,129.333 30.264,129.333 30.384 C 129.333 30.676,128.474 32.401,128.292 32.475 C 128.213 32.508,127.968 32.714,127.748 32.934 C 127.528 33.154,127.249 33.333,127.128 33.333 C 127.006 33.333,126.799 33.483,126.667 33.667 C 126.535 33.850,126.293 34.000,126.130 34.000 C 125.967 34.000,125.833 34.075,125.833 34.167 C 125.833 34.258,125.721 34.333,125.583 34.333 C 125.446 34.333,125.333 34.408,125.333 34.500 C 125.333 34.592,125.108 34.667,124.833 34.667 C 124.558 34.667,124.333 34.742,124.333 34.833 C 124.333 34.925,123.958 35.000,123.500 35.000 C 123.042 35.000,122.667 35.075,122.667 35.167 C 122.667 35.270,121.722 35.333,120.167 35.333 L 117.667 35.333 117.667 28.500 L 117.667 21.667 121.000 21.667 C 123.111 21.667,124.333 21.728,124.333 21.833 M123.333 46.833 C 123.333 46.925,123.633 47.000,124.000 47.000 C 124.367 47.000,124.667 47.059,124.667 47.131 C 124.667 47.203,124.884 47.279,125.150 47.299 C 125.416 47.320,125.848 47.448,126.109 47.584 C 126.370 47.720,126.715 47.832,126.875 47.832 C 127.035 47.833,127.167 47.908,127.167 48.000 C 127.167 48.092,127.317 48.167,127.500 48.167 C 127.683 48.167,127.833 48.242,127.833 48.333 C 127.833 48.425,127.983 48.500,128.167 48.500 C 128.350 48.500,128.500 48.570,128.500 48.656 C 128.500 48.741,128.912 49.224,129.417 49.728 C 129.921 50.232,130.333 50.725,130.333 50.822 C 130.333 50.920,130.408 51.000,130.500 51.000 C 130.592 51.000,130.667 51.150,130.667 51.333 C 130.667 51.517,130.742 51.667,130.833 51.667 C 130.925 51.667,131.000 51.892,131.000 52.167 C 131.000 52.442,131.075 52.667,131.167 52.667 C 131.269 52.667,131.333 53.472,131.333 54.750 C 131.333 56.028,131.269 56.833,131.167 56.833 C 131.075 56.833,131.000 57.096,131.000 57.417 C 131.000 57.737,130.925 58.000,130.833 58.000 C 130.742 58.000,130.667 58.150,130.667 58.333 C 130.667 58.517,130.592 58.667,130.500 58.667 C 130.408 58.667,130.333 58.782,130.333 58.924 C 130.333 59.217,128.392 61.167,128.099 61.167 C 127.993 61.167,127.799 61.317,127.667 61.500 C 127.535 61.683,127.293 61.833,127.130 61.833 C 126.967 61.833,126.833 61.908,126.833 62.000 C 126.833 62.092,126.650 62.167,126.427 62.167 C 126.203 62.167,125.973 62.242,125.917 62.333 C 125.860 62.425,125.631 62.500,125.407 62.500 C 125.183 62.500,125.000 62.575,125.000 62.667 C 125.000 62.758,124.667 62.833,124.260 62.833 C 123.853 62.833,123.473 62.908,123.417 63.000 C 123.355 63.100,122.193 63.167,120.490 63.167 L 117.667 63.167 117.667 54.917 L 117.667 46.667 120.500 46.667 C 122.278 46.667,123.333 46.729,123.333 46.833 " stroke="none" fill="#0464fc" fill-rule="evenodd"></path><path id="path2" d="M224.518 8.317 L 224.000 8.800 224.000 19.067 C 224.000 25.800,223.943 29.333,223.833 29.333 C 223.742 29.333,223.667 29.258,223.667 29.167 C 223.667 29.075,223.571 29.000,223.453 29.000 C 223.336 29.000,223.132 28.850,223.000 28.667 C 222.868 28.483,222.626 28.333,222.463 28.333 C 222.300 28.333,222.167 28.258,222.167 28.167 C 222.167 28.075,222.017 28.000,221.833 28.000 C 221.650 28.000,221.500 27.925,221.500 27.833 C 221.500 27.742,221.350 27.667,221.167 27.667 C 220.983 27.667,220.833 27.592,220.833 27.500 C 220.833 27.408,220.646 27.333,220.417 27.333 C 220.188 27.333,220.000 27.258,220.000 27.167 C 220.000 27.075,219.700 27.000,219.333 27.000 C 218.967 27.000,218.667 26.932,218.667 26.849 C 218.667 26.514,212.761 26.173,212.443 26.490 C 212.346 26.587,211.869 26.667,211.383 26.667 C 210.898 26.667,210.500 26.742,210.500 26.833 C 210.500 26.925,210.200 27.000,209.833 27.000 C 209.467 27.000,209.167 27.075,209.167 27.167 C 209.167 27.258,209.032 27.333,208.867 27.333 C 208.494 27.333,207.670 27.706,207.668 27.875 C 207.667 27.944,207.517 28.000,207.333 28.000 C 207.150 28.000,207.000 28.075,207.000 28.167 C 207.000 28.258,206.850 28.333,206.667 28.333 C 206.483 28.333,206.333 28.408,206.333 28.500 C 206.333 28.592,206.183 28.667,206.000 28.667 C 205.817 28.667,205.667 28.733,205.667 28.814 C 205.667 28.895,205.535 29.006,205.375 29.062 C 204.799 29.260,203.947 29.862,203.325 30.508 C 202.977 30.870,202.605 31.167,202.498 31.167 C 202.226 31.167,201.679 31.857,201.672 32.208 C 201.669 32.369,201.600 32.500,201.518 32.500 C 201.289 32.500,200.333 33.441,200.333 33.667 C 200.333 33.776,200.127 34.066,199.875 34.310 C 199.623 34.554,199.393 34.860,199.365 34.990 C 199.337 35.120,199.167 35.432,198.989 35.683 C 198.810 35.933,198.618 36.370,198.561 36.653 C 198.505 36.935,198.393 37.167,198.313 37.167 C 198.232 37.167,198.167 37.317,198.167 37.500 C 198.167 37.683,198.092 37.833,198.000 37.833 C 197.908 37.833,197.833 37.983,197.833 38.167 C 197.833 38.350,197.777 38.501,197.708 38.501 C 197.539 38.503,197.167 39.327,197.167 39.700 C 197.167 39.865,197.092 40.000,197.000 40.000 C 196.908 40.000,196.833 40.225,196.833 40.500 C 196.833 40.775,196.758 41.000,196.667 41.000 C 196.575 41.000,196.500 41.258,196.500 41.573 C 196.500 41.889,196.425 42.193,196.333 42.250 C 196.242 42.307,196.167 42.686,196.167 43.093 C 196.167 43.500,196.092 43.833,196.000 43.833 C 195.908 43.833,195.833 44.156,195.833 44.550 C 195.833 44.944,195.746 45.354,195.639 45.461 C 195.358 45.742,195.353 56.086,195.634 56.367 C 195.743 56.477,195.833 56.964,195.833 57.450 C 195.833 57.936,195.908 58.333,196.000 58.333 C 196.092 58.333,196.167 58.633,196.167 59.000 C 196.167 59.367,196.242 59.667,196.333 59.667 C 196.425 59.667,196.500 59.929,196.500 60.250 C 196.500 60.571,196.575 60.833,196.667 60.833 C 196.758 60.833,196.833 61.058,196.833 61.333 C 196.833 61.608,196.908 61.833,197.000 61.833 C 197.092 61.833,197.167 61.968,197.167 62.133 C 197.167 62.506,197.539 63.330,197.708 63.332 C 197.777 63.333,197.833 63.483,197.833 63.667 C 197.833 63.850,197.908 64.000,198.000 64.000 C 198.092 64.000,198.167 64.225,198.167 64.500 C 198.167 64.775,198.242 65.000,198.333 65.000 C 198.425 65.000,198.500 65.141,198.500 65.313 C 198.500 65.485,198.612 65.719,198.750 65.833 C 198.887 65.947,199.000 66.138,199.000 66.257 C 199.000 66.375,199.069 66.497,199.154 66.528 C 199.239 66.558,199.333 66.695,199.363 66.832 C 199.392 66.968,199.623 67.280,199.875 67.524 C 200.127 67.768,200.333 68.046,200.333 68.143 C 200.333 68.239,200.671 68.641,201.083 69.034 C 201.495 69.428,201.832 69.846,201.833 69.964 C 201.833 70.081,201.965 70.227,202.125 70.288 C 202.285 70.349,202.768 70.760,203.198 71.200 C 203.627 71.640,204.096 72.000,204.239 72.000 C 204.383 72.000,204.500 72.074,204.500 72.163 C 204.500 72.253,204.688 72.374,204.917 72.432 C 205.146 72.489,205.333 72.603,205.333 72.685 C 205.333 72.766,205.450 72.833,205.593 72.833 C 205.736 72.833,205.807 72.908,205.750 73.000 C 205.693 73.092,205.801 73.167,205.990 73.167 C 206.179 73.167,206.333 73.242,206.333 73.333 C 206.333 73.425,206.558 73.500,206.833 73.500 C 207.108 73.500,207.333 73.575,207.333 73.667 C 207.333 73.758,207.483 73.833,207.667 73.833 C 207.850 73.833,208.000 73.908,208.000 74.000 C 208.000 74.092,208.188 74.167,208.417 74.167 C 208.646 74.167,208.833 74.242,208.833 74.333 C 208.833 74.425,209.129 74.500,209.490 74.500 C 209.851 74.500,210.193 74.575,210.250 74.667 C 210.307 74.758,210.836 74.833,211.427 74.833 C 212.017 74.833,212.500 74.898,212.500 74.977 C 212.500 75.055,213.100 75.134,213.833 75.152 C 214.675 75.172,215.167 75.119,215.167 75.009 C 215.167 74.904,215.603 74.833,216.250 74.833 C 216.861 74.833,217.333 74.761,217.333 74.667 C 217.333 74.575,217.633 74.500,218.000 74.500 C 218.367 74.500,218.667 74.425,218.667 74.333 C 218.667 74.242,218.892 74.167,219.167 74.167 C 219.442 74.167,219.667 74.092,219.667 74.000 C 219.667 73.908,219.854 73.833,220.083 73.833 C 220.313 73.833,220.500 73.758,220.500 73.667 C 220.500 73.575,220.650 73.500,220.833 73.500 C 221.017 73.500,221.167 73.425,221.167 73.333 C 221.167 73.242,221.317 73.167,221.500 73.167 C 221.683 73.167,221.833 73.092,221.833 73.000 C 221.833 72.908,221.983 72.833,222.167 72.833 C 222.350 72.833,222.500 72.763,222.500 72.678 C 222.500 72.592,222.662 72.471,222.859 72.409 C 223.056 72.346,223.503 72.003,223.852 71.647 C 224.201 71.291,224.602 71.000,224.743 71.000 C 224.885 71.000,225.000 70.925,225.000 70.833 C 225.000 70.742,225.147 70.667,225.328 70.667 C 225.629 70.667,225.659 70.804,225.703 72.375 L 225.750 74.083 231.628 74.127 L 237.507 74.171 238.087 73.591 L 238.667 73.011 238.667 68.672 C 238.667 65.891,238.607 64.333,238.500 64.333 C 238.390 64.333,238.333 54.967,238.333 36.567 L 238.333 8.800 237.816 8.317 L 237.298 7.833 231.167 7.833 L 225.035 7.833 224.518 8.317 M272.018 8.317 L 271.500 8.800 271.487 19.109 C 271.480 24.778,271.436 29.323,271.390 29.208 C 271.343 29.094,271.178 29.000,271.023 29.000 C 270.867 29.000,270.632 28.850,270.500 28.667 C 270.368 28.483,270.126 28.333,269.963 28.333 C 269.800 28.333,269.667 28.258,269.667 28.167 C 269.667 28.075,269.517 28.000,269.333 28.000 C 269.150 28.000,269.000 27.925,269.000 27.833 C 269.000 27.742,268.850 27.667,268.667 27.667 C 268.483 27.667,268.333 27.592,268.333 27.500 C 268.333 27.408,268.146 27.333,267.917 27.333 C 267.688 27.333,267.500 27.258,267.500 27.167 C 267.500 27.075,267.200 27.000,266.833 27.000 C 266.467 27.000,266.167 26.932,266.167 26.849 C 266.167 26.514,260.261 26.173,259.943 26.490 C 259.846 26.587,259.369 26.667,258.883 26.667 C 258.398 26.667,258.000 26.742,258.000 26.833 C 258.000 26.925,257.700 27.000,257.333 27.000 C 256.967 27.000,256.667 27.075,256.667 27.167 C 256.667 27.258,256.479 27.333,256.250 27.333 C 256.021 27.333,255.833 27.408,255.833 27.500 C 255.833 27.592,255.683 27.667,255.500 27.667 C 255.317 27.667,255.167 27.742,255.167 27.833 C 255.167 27.925,255.017 28.000,254.833 28.000 C 254.650 28.000,254.500 28.075,254.500 28.167 C 254.500 28.258,254.350 28.333,254.167 28.333 C 253.983 28.333,253.833 28.408,253.833 28.500 C 253.833 28.592,253.683 28.667,253.500 28.667 C 253.317 28.667,253.167 28.742,253.167 28.833 C 253.167 28.925,253.054 29.000,252.917 29.000 C 252.779 29.000,252.667 29.068,252.667 29.150 C 252.667 29.233,252.451 29.376,252.187 29.468 C 251.923 29.560,251.362 29.980,250.941 30.401 C 250.520 30.822,250.112 31.167,250.034 31.167 C 249.813 31.167,249.167 31.975,249.167 32.251 C 249.167 32.388,249.100 32.500,249.018 32.500 C 248.789 32.500,247.833 33.441,247.833 33.667 C 247.833 33.776,247.627 34.066,247.375 34.310 C 247.123 34.554,246.892 34.864,246.862 35.000 C 246.831 35.136,246.752 35.285,246.686 35.332 C 246.498 35.464,246.000 36.604,246.000 36.900 C 246.000 37.047,245.925 37.167,245.833 37.167 C 245.742 37.167,245.667 37.317,245.667 37.500 C 245.667 37.683,245.592 37.833,245.500 37.833 C 245.408 37.833,245.333 37.983,245.333 38.167 C 245.333 38.350,245.277 38.501,245.208 38.501 C 245.039 38.503,244.667 39.327,244.667 39.700 C 244.667 39.865,244.592 40.000,244.500 40.000 C 244.408 40.000,244.333 40.225,244.333 40.500 C 244.333 40.775,244.258 41.000,244.167 41.000 C 244.075 41.000,244.000 41.258,244.000 41.573 C 244.000 41.889,243.925 42.193,243.833 42.250 C 243.742 42.307,243.667 42.686,243.667 43.093 C 243.667 43.500,243.599 43.833,243.516 43.833 C 242.982 43.833,242.660 55.778,243.176 56.422 C 243.252 56.516,243.331 56.985,243.353 57.463 C 243.375 57.942,243.455 58.333,243.530 58.333 C 243.605 58.333,243.667 58.633,243.667 59.000 C 243.667 59.367,243.742 59.667,243.833 59.667 C 243.925 59.667,244.000 59.887,244.000 60.157 C 244.000 60.426,244.075 60.693,244.167 60.750 C 244.258 60.807,244.333 61.074,244.333 61.343 C 244.333 61.613,244.408 61.833,244.500 61.833 C 244.592 61.833,244.667 61.968,244.667 62.133 C 244.667 62.506,245.039 63.330,245.208 63.332 C 245.277 63.333,245.333 63.483,245.333 63.667 C 245.333 63.850,245.408 64.000,245.500 64.000 C 245.592 64.000,245.667 64.225,245.667 64.500 C 245.667 64.775,245.742 65.000,245.833 65.000 C 245.925 65.000,246.000 65.141,246.000 65.313 C 246.000 65.485,246.112 65.719,246.250 65.833 C 246.387 65.947,246.500 66.138,246.500 66.257 C 246.500 66.375,246.569 66.497,246.654 66.528 C 246.739 66.558,246.833 66.695,246.863 66.832 C 246.892 66.968,247.123 67.280,247.375 67.524 C 247.627 67.768,247.833 68.052,247.833 68.155 C 247.833 68.259,248.208 68.707,248.667 69.151 C 249.125 69.595,249.500 70.043,249.500 70.146 C 249.500 70.249,249.580 70.333,249.677 70.333 C 249.775 70.333,250.220 70.708,250.667 71.167 C 251.113 71.625,251.596 72.000,251.739 72.000 C 251.883 72.000,252.000 72.074,252.000 72.163 C 252.000 72.253,252.188 72.374,252.417 72.432 C 252.646 72.489,252.833 72.603,252.833 72.685 C 252.833 72.766,252.950 72.833,253.093 72.833 C 253.236 72.833,253.307 72.908,253.250 73.000 C 253.193 73.092,253.301 73.167,253.490 73.167 C 253.679 73.167,253.833 73.242,253.833 73.333 C 253.833 73.425,254.058 73.500,254.333 73.500 C 254.608 73.500,254.833 73.575,254.833 73.667 C 254.833 73.758,254.983 73.833,255.167 73.833 C 255.350 73.833,255.500 73.908,255.500 74.000 C 255.500 74.092,255.688 74.167,255.917 74.167 C 256.146 74.167,256.333 74.242,256.333 74.333 C 256.333 74.425,256.633 74.500,257.000 74.500 C 257.367 74.500,257.667 74.575,257.667 74.667 C 257.667 74.761,258.136 74.833,258.740 74.833 C 259.331 74.833,259.853 74.898,259.902 74.976 C 260.034 75.190,262.667 75.221,262.667 75.009 C 262.667 74.904,263.100 74.833,263.740 74.833 C 264.331 74.833,264.860 74.758,264.917 74.667 C 264.973 74.575,265.278 74.500,265.593 74.500 C 265.909 74.500,266.167 74.425,266.167 74.333 C 266.167 74.242,266.392 74.167,266.667 74.167 C 266.942 74.167,267.167 74.092,267.167 74.000 C 267.167 73.908,267.302 73.833,267.467 73.833 C 267.839 73.833,268.664 73.461,268.665 73.292 C 268.666 73.223,268.817 73.167,269.000 73.167 C 269.183 73.167,269.333 73.092,269.333 73.000 C 269.333 72.908,269.483 72.833,269.667 72.833 C 269.850 72.833,270.000 72.767,270.000 72.687 C 270.000 72.606,270.222 72.448,270.494 72.336 C 270.766 72.223,271.205 71.877,271.471 71.566 C 271.737 71.255,272.077 71.000,272.227 71.000 C 272.377 71.000,272.500 70.925,272.500 70.833 C 272.500 70.742,272.650 70.667,272.833 70.667 C 273.146 70.667,273.167 70.778,273.167 72.417 L 273.167 74.167 279.089 74.167 L 285.011 74.167 285.589 73.589 L 286.167 73.011 286.167 68.672 C 286.167 65.891,286.107 64.333,286.000 64.333 C 285.890 64.333,285.833 54.967,285.833 36.567 L 285.833 8.800 285.316 8.317 L 284.798 7.833 278.667 7.833 L 272.535 7.833 272.018 8.317 M298.167 9.167 C 298.167 9.258,297.946 9.333,297.677 9.333 C 297.407 9.333,297.140 9.408,297.083 9.500 C 297.027 9.592,296.835 9.667,296.657 9.667 C 296.479 9.667,296.333 9.742,296.333 9.833 C 296.333 9.925,296.183 10.000,296.000 10.000 C 295.817 10.000,295.667 10.075,295.667 10.167 C 295.667 10.258,295.551 10.333,295.409 10.333 C 295.046 10.333,293.902 11.433,293.661 12.013 C 293.550 12.281,293.394 12.500,293.313 12.500 C 293.233 12.500,293.167 12.650,293.167 12.833 C 293.167 13.017,293.092 13.167,293.000 13.167 C 292.908 13.167,292.833 13.350,292.833 13.573 C 292.833 13.797,292.758 14.027,292.667 14.083 C 292.575 14.140,292.500 14.519,292.500 14.927 C 292.500 15.334,292.425 15.667,292.333 15.667 C 292.239 15.667,292.167 16.139,292.167 16.750 C 292.167 17.361,292.239 17.833,292.333 17.833 C 292.425 17.833,292.500 18.208,292.500 18.667 C 292.500 19.125,292.575 19.500,292.667 19.500 C 292.758 19.500,292.833 19.612,292.833 19.750 C 292.833 19.887,292.908 20.000,293.000 20.000 C 293.092 20.000,293.167 20.150,293.167 20.333 C 293.167 20.517,293.242 20.667,293.333 20.667 C 293.425 20.667,293.500 20.805,293.500 20.974 C 293.500 21.398,295.245 23.167,295.663 23.167 C 295.848 23.167,296.000 23.242,296.000 23.333 C 296.000 23.425,296.150 23.500,296.333 23.500 C 296.517 23.500,296.667 23.575,296.667 23.667 C 296.667 23.758,296.854 23.833,297.083 23.833 C 297.313 23.833,297.500 23.908,297.500 24.000 C 297.500 24.103,298.417 24.167,299.917 24.167 C 301.417 24.167,302.333 24.103,302.333 24.000 C 302.333 23.908,302.521 23.833,302.750 23.833 C 302.979 23.833,303.167 23.758,303.167 23.667 C 303.167 23.575,303.317 23.500,303.500 23.500 C 303.683 23.500,303.833 23.425,303.833 23.333 C 303.833 23.242,303.978 23.167,304.155 23.167 C 304.332 23.167,304.578 23.073,304.703 22.958 C 304.828 22.844,305.078 22.668,305.257 22.568 C 305.437 22.467,305.751 22.130,305.955 21.818 C 306.160 21.505,306.404 21.159,306.497 21.049 C 306.590 20.938,306.667 20.732,306.667 20.590 C 306.667 20.449,306.723 20.333,306.792 20.332 C 306.993 20.330,307.333 19.473,307.333 18.967 C 307.333 18.710,307.408 18.500,307.500 18.500 C 307.601 18.500,307.667 17.806,307.667 16.750 C 307.667 15.694,307.601 15.000,307.500 15.000 C 307.408 15.000,307.333 14.737,307.333 14.417 C 307.333 14.096,307.258 13.833,307.167 13.833 C 307.075 13.833,307.000 13.683,307.000 13.500 C 307.000 13.317,306.925 13.167,306.833 13.167 C 306.742 13.167,306.667 13.017,306.667 12.833 C 306.667 12.650,306.592 12.500,306.500 12.500 C 306.408 12.500,306.333 12.368,306.333 12.207 C 306.333 11.747,304.886 10.333,304.415 10.333 C 304.279 10.333,304.167 10.258,304.167 10.167 C 304.167 10.075,304.017 10.000,303.833 10.000 C 303.650 10.000,303.499 9.944,303.499 9.875 C 303.497 9.673,302.640 9.333,302.133 9.333 C 301.877 9.333,301.667 9.258,301.667 9.167 C 301.667 9.066,300.972 9.000,299.917 9.000 C 298.861 9.000,298.167 9.066,298.167 9.167 M329.917 26.500 C 329.860 26.592,329.406 26.667,328.907 26.667 C 328.408 26.667,328.000 26.742,328.000 26.833 C 328.000 26.925,327.775 27.000,327.500 27.000 C 327.225 27.000,327.000 27.075,327.000 27.167 C 327.000 27.258,326.790 27.333,326.533 27.333 C 326.027 27.333,325.170 27.673,325.168 27.875 C 325.167 27.944,324.942 28.000,324.667 28.000 C 324.392 28.000,324.167 28.075,324.167 28.167 C 324.167 28.258,324.017 28.333,323.833 28.333 C 323.650 28.333,323.500 28.408,323.500 28.500 C 323.500 28.592,323.378 28.667,323.228 28.667 C 323.078 28.667,322.834 28.806,322.686 28.976 C 322.538 29.146,322.248 29.339,322.042 29.404 C 321.835 29.469,321.667 29.592,321.667 29.678 C 321.667 29.763,321.544 29.833,321.395 29.833 C 321.245 29.833,320.996 29.979,320.842 30.156 C 320.688 30.334,320.460 30.503,320.336 30.531 C 320.212 30.560,319.916 30.796,319.680 31.056 C 319.036 31.763,318.250 32.533,317.694 33.000 C 317.422 33.229,317.230 33.468,317.269 33.531 C 317.308 33.594,317.152 33.833,316.922 34.063 C 316.477 34.508,315.894 35.392,315.728 35.875 C 315.673 36.035,315.562 36.167,315.481 36.167 C 315.400 36.167,315.333 36.300,315.333 36.463 C 315.333 36.626,315.183 36.868,315.000 37.000 C 314.817 37.132,314.667 37.374,314.667 37.537 C 314.667 37.700,314.592 37.833,314.500 37.833 C 314.408 37.833,314.333 38.021,314.333 38.250 C 314.333 38.479,314.258 38.667,314.167 38.667 C 314.075 38.667,314.000 38.817,314.000 39.000 C 314.000 39.183,313.925 39.333,313.833 39.333 C 313.742 39.333,313.667 39.521,313.667 39.750 C 313.667 39.979,313.592 40.167,313.500 40.167 C 313.408 40.167,313.333 40.354,313.333 40.583 C 313.333 40.813,313.274 41.000,313.202 41.000 C 313.046 41.000,312.493 43.386,312.497 44.042 C 312.499 44.294,312.425 44.500,312.333 44.500 C 312.242 44.500,312.167 44.913,312.167 45.417 C 312.167 45.921,312.092 46.333,312.000 46.333 C 311.901 46.333,311.833 46.972,311.833 47.917 C 311.833 48.861,311.766 49.500,311.667 49.500 C 311.565 49.500,311.500 50.250,311.500 51.417 C 311.500 52.583,311.565 53.333,311.667 53.333 C 311.766 53.333,311.833 53.972,311.833 54.917 C 311.833 55.861,311.901 56.500,312.000 56.500 C 312.092 56.500,312.167 56.913,312.167 57.417 C 312.167 57.921,312.231 58.333,312.310 58.333 C 312.389 58.333,312.497 58.757,312.550 59.274 C 312.604 59.791,312.727 60.293,312.824 60.390 C 312.921 60.487,313.000 60.777,313.000 61.033 C 313.000 61.290,313.075 61.500,313.167 61.500 C 313.258 61.500,313.333 61.613,313.333 61.752 C 313.333 62.067,314.021 63.564,314.200 63.639 C 314.274 63.669,314.333 63.838,314.333 64.014 C 314.333 64.190,314.408 64.333,314.500 64.333 C 314.592 64.333,314.667 64.483,314.667 64.667 C 314.667 64.850,314.742 65.000,314.833 65.000 C 314.925 65.000,315.000 65.133,315.000 65.297 C 315.000 65.460,315.150 65.701,315.333 65.833 C 315.517 65.965,315.667 66.152,315.667 66.247 C 315.667 66.342,315.854 66.622,316.083 66.869 C 316.313 67.117,316.500 67.389,316.500 67.476 C 316.500 67.690,319.208 70.333,319.428 70.333 C 319.486 70.333,319.732 70.540,319.976 70.792 C 320.220 71.044,320.532 71.274,320.668 71.304 C 320.805 71.334,320.942 71.428,320.972 71.513 C 321.003 71.597,321.172 71.667,321.347 71.667 C 321.523 71.667,321.667 71.730,321.667 71.807 C 321.667 71.884,321.948 72.083,322.292 72.248 C 322.635 72.414,323.047 72.613,323.206 72.691 C 323.365 72.769,323.646 72.833,323.831 72.833 C 324.016 72.833,324.167 72.908,324.167 73.000 C 324.167 73.092,324.317 73.167,324.500 73.167 C 324.683 73.167,324.833 73.242,324.833 73.333 C 324.833 73.425,325.021 73.500,325.250 73.500 C 325.479 73.500,325.667 73.575,325.667 73.667 C 325.667 73.758,325.892 73.833,326.167 73.833 C 326.442 73.833,326.667 73.908,326.667 74.000 C 326.667 74.092,326.967 74.167,327.333 74.167 C 327.700 74.167,328.000 74.242,328.000 74.333 C 328.000 74.425,328.412 74.500,328.917 74.500 C 329.421 74.500,329.833 74.575,329.833 74.667 C 329.833 74.774,331.583 74.833,334.750 74.833 C 337.917 74.833,339.667 74.774,339.667 74.667 C 339.667 74.570,340.194 74.500,340.917 74.500 C 341.639 74.500,342.167 74.430,342.167 74.333 C 342.167 74.242,342.542 74.167,343.000 74.167 C 343.458 74.167,343.833 74.092,343.833 74.000 C 343.833 73.908,344.096 73.833,344.417 73.833 C 344.738 73.833,345.000 73.758,345.000 73.667 C 345.000 73.575,345.300 73.500,345.667 73.500 C 346.033 73.500,346.333 73.425,346.333 73.333 C 346.333 73.242,346.558 73.167,346.833 73.167 C 347.108 73.167,347.333 73.092,347.333 73.000 C 347.333 72.908,347.521 72.833,347.750 72.833 C 347.979 72.833,348.167 72.767,348.167 72.686 C 348.167 72.604,348.485 72.488,348.875 72.428 C 349.947 72.261,350.191 72.006,350.144 71.100 C 350.122 70.678,350.043 70.333,349.969 70.333 C 349.894 70.333,349.833 70.002,349.833 69.597 C 349.833 69.192,349.762 68.836,349.676 68.806 C 349.589 68.775,349.500 68.394,349.478 67.958 C 349.456 67.523,349.377 67.167,349.302 67.167 C 349.228 67.167,349.167 66.904,349.167 66.583 C 349.167 66.262,349.092 66.000,349.000 66.000 C 348.908 66.000,348.833 65.625,348.833 65.167 C 348.833 64.708,348.758 64.333,348.667 64.333 C 348.575 64.333,348.500 63.996,348.500 63.583 C 348.500 63.171,348.425 62.833,348.333 62.833 C 348.242 62.833,348.167 62.714,348.167 62.568 C 348.167 62.422,348.017 62.263,347.833 62.215 C 347.650 62.167,347.500 62.062,347.500 61.981 C 347.500 61.900,347.387 61.833,347.250 61.833 C 347.113 61.833,347.000 61.758,347.000 61.667 C 347.000 61.575,346.775 61.500,346.500 61.500 C 346.225 61.500,346.000 61.575,346.000 61.667 C 346.000 61.758,345.817 61.833,345.593 61.833 C 345.369 61.833,345.140 61.908,345.083 62.000 C 345.027 62.092,344.797 62.167,344.573 62.167 C 344.350 62.167,344.167 62.242,344.167 62.333 C 344.167 62.425,343.867 62.500,343.500 62.500 C 343.133 62.500,342.833 62.575,342.833 62.667 C 342.833 62.758,342.502 62.833,342.097 62.833 C 341.684 62.833,341.333 62.919,341.296 63.028 C 341.200 63.318,332.805 63.331,332.708 63.042 C 332.670 62.927,332.420 62.833,332.153 62.833 C 331.885 62.833,331.667 62.758,331.667 62.667 C 331.667 62.575,331.479 62.500,331.250 62.500 C 331.021 62.500,330.833 62.425,330.833 62.333 C 330.833 62.242,330.683 62.167,330.500 62.167 C 330.317 62.167,330.167 62.092,330.167 62.000 C 330.167 61.908,330.051 61.833,329.910 61.833 C 329.768 61.833,329.492 61.683,329.295 61.500 C 329.098 61.317,328.839 61.167,328.719 61.167 C 328.598 61.167,328.500 61.092,328.500 61.001 C 328.500 60.910,328.275 60.635,328.000 60.390 C 327.725 60.145,327.535 59.910,327.577 59.867 C 327.620 59.824,327.433 59.582,327.161 59.328 C 326.889 59.074,326.667 58.746,326.667 58.600 C 326.667 58.453,326.592 58.333,326.500 58.333 C 326.408 58.333,326.333 58.108,326.333 57.833 C 326.333 57.558,326.258 57.333,326.167 57.333 C 326.075 57.333,326.000 57.146,326.000 56.917 C 326.000 56.688,325.925 56.500,325.833 56.500 C 325.742 56.500,325.667 56.275,325.667 56.000 L 325.667 55.500 338.667 55.500 C 351.556 55.500,351.667 55.497,351.667 55.167 C 351.667 54.983,351.742 54.833,351.833 54.833 C 351.933 54.833,352.000 54.194,352.000 53.250 C 352.000 52.306,352.067 51.667,352.167 51.667 C 352.269 51.667,352.333 50.889,352.333 49.667 C 352.333 48.444,352.269 47.667,352.167 47.667 C 352.065 47.667,352.000 46.917,352.000 45.750 C 352.000 44.583,351.935 43.833,351.833 43.833 C 351.742 43.833,351.667 43.458,351.667 43.000 C 351.667 42.542,351.592 42.167,351.500 42.167 C 351.408 42.167,351.333 41.829,351.333 41.417 C 351.333 41.004,351.258 40.667,351.167 40.667 C 351.075 40.667,351.000 40.433,351.000 40.147 C 351.000 39.583,350.494 37.951,350.292 37.861 C 350.223 37.831,350.167 37.624,350.167 37.403 C 350.167 37.181,350.092 37.000,350.000 37.000 C 349.908 37.000,349.833 36.813,349.833 36.583 C 349.833 36.354,349.758 36.167,349.667 36.167 C 349.575 36.167,349.500 36.054,349.500 35.917 C 349.500 35.779,349.425 35.667,349.333 35.667 C 349.242 35.667,349.167 35.533,349.167 35.370 C 349.167 35.207,349.017 34.965,348.833 34.833 C 348.650 34.701,348.500 34.460,348.500 34.297 C 348.500 34.133,348.425 34.000,348.333 34.000 C 348.242 34.000,348.167 33.881,348.167 33.736 C 348.167 33.591,347.904 33.217,347.583 32.906 C 347.262 32.594,347.000 32.225,347.000 32.086 C 347.000 31.947,346.875 31.833,346.722 31.833 C 346.569 31.833,346.489 31.788,346.544 31.733 C 346.668 31.610,345.578 30.500,345.333 30.500 C 345.236 30.500,344.893 30.238,344.572 29.917 C 344.251 29.596,343.879 29.333,343.744 29.333 C 343.610 29.333,343.500 29.258,343.500 29.167 C 343.500 29.075,343.367 29.000,343.203 29.000 C 343.040 29.000,342.799 28.850,342.667 28.667 C 342.535 28.483,342.333 28.333,342.218 28.333 C 342.104 28.333,341.743 28.183,341.417 28.000 C 341.090 27.817,340.713 27.667,340.578 27.667 C 340.444 27.667,340.333 27.592,340.333 27.500 C 340.333 27.408,340.108 27.333,339.833 27.333 C 339.558 27.333,339.333 27.258,339.333 27.167 C 339.333 27.075,339.033 27.000,338.667 27.000 C 338.300 27.000,338.000 26.925,338.000 26.833 C 338.000 26.742,337.667 26.667,337.260 26.667 C 336.853 26.667,336.473 26.592,336.417 26.500 C 336.354 26.398,335.085 26.333,333.167 26.333 C 331.248 26.333,329.979 26.398,329.917 26.500 M369.333 26.500 C 369.196 26.589,368.727 26.663,368.292 26.664 C 367.856 26.666,367.500 26.742,367.500 26.833 C 367.500 26.925,367.238 27.000,366.917 27.000 C 366.596 27.000,366.333 27.075,366.333 27.167 C 366.333 27.258,366.108 27.333,365.833 27.333 C 365.558 27.333,365.333 27.408,365.333 27.500 C 365.333 27.592,365.108 27.667,364.833 27.667 C 364.558 27.667,364.333 27.742,364.333 27.833 C 364.333 27.925,364.183 28.000,364.000 28.000 C 363.817 28.000,363.667 28.075,363.667 28.167 C 363.667 28.258,363.554 28.333,363.417 28.333 C 363.279 28.333,363.167 28.408,363.167 28.500 C 363.167 28.592,363.017 28.667,362.833 28.667 C 362.650 28.667,362.500 28.742,362.500 28.833 C 362.500 28.925,362.350 29.000,362.167 29.000 C 361.983 29.000,361.833 29.074,361.833 29.163 C 361.833 29.253,361.646 29.374,361.416 29.432 C 361.187 29.489,360.817 29.753,360.594 30.018 C 360.371 30.283,360.106 30.500,360.005 30.500 C 359.773 30.500,358.667 31.598,358.667 31.828 C 358.667 31.923,358.371 32.287,358.011 32.637 C 357.650 32.987,357.300 33.491,357.234 33.756 C 357.167 34.022,356.975 34.387,356.806 34.568 C 356.638 34.748,356.500 35.032,356.500 35.198 C 356.500 35.364,356.425 35.500,356.333 35.500 C 356.242 35.500,356.167 35.650,356.167 35.833 C 356.167 36.017,356.092 36.167,356.000 36.167 C 355.908 36.167,355.833 36.387,355.833 36.657 C 355.833 36.926,355.758 37.193,355.667 37.250 C 355.575 37.307,355.500 37.611,355.500 37.927 C 355.500 38.242,355.425 38.500,355.333 38.500 C 355.228 38.500,355.167 39.611,355.167 41.500 C 355.167 43.389,355.228 44.500,355.333 44.500 C 355.425 44.500,355.500 44.762,355.500 45.083 C 355.500 45.404,355.575 45.667,355.667 45.667 C 355.758 45.667,355.833 45.892,355.833 46.167 C 355.833 46.442,355.908 46.667,356.000 46.667 C 356.092 46.667,356.167 46.817,356.167 47.000 C 356.167 47.183,356.242 47.333,356.333 47.333 C 356.425 47.333,356.500 47.418,356.500 47.522 C 356.500 47.626,356.638 47.832,356.807 47.980 C 356.975 48.129,357.164 48.456,357.227 48.708 C 357.289 48.960,357.413 49.167,357.503 49.167 C 357.593 49.167,357.667 49.266,357.667 49.387 C 357.667 49.583,358.005 49.950,359.422 51.292 C 359.640 51.498,359.934 51.667,360.076 51.667 C 360.217 51.667,360.333 51.741,360.333 51.832 C 360.333 52.034,361.325 53.000,361.532 53.000 C 361.614 53.000,361.822 53.131,361.994 53.292 C 362.166 53.452,362.688 53.731,363.153 53.912 C 363.619 54.092,364.000 54.299,364.000 54.370 C 364.000 54.442,364.150 54.500,364.333 54.500 C 364.517 54.500,364.667 54.575,364.667 54.667 C 364.667 54.758,364.817 54.833,365.000 54.833 C 365.183 54.833,365.333 54.908,365.333 55.000 C 365.333 55.092,365.483 55.167,365.667 55.167 C 365.850 55.167,366.000 55.242,366.000 55.333 C 366.000 55.425,366.150 55.500,366.333 55.500 C 366.517 55.500,366.667 55.575,366.667 55.667 C 366.667 55.758,366.854 55.833,367.083 55.833 C 367.313 55.833,367.500 55.908,367.500 56.000 C 367.500 56.092,367.650 56.167,367.833 56.167 C 368.017 56.167,368.167 56.242,368.167 56.333 C 368.167 56.425,368.317 56.500,368.500 56.500 C 368.683 56.500,368.833 56.567,368.833 56.648 C 368.833 56.730,369.080 56.842,369.380 56.899 C 369.681 56.955,370.035 57.151,370.167 57.334 C 370.299 57.517,370.505 57.667,370.625 57.667 C 370.928 57.667,372.333 59.102,372.333 59.412 C 372.333 59.552,372.408 59.667,372.500 59.667 C 372.592 59.667,372.667 60.079,372.667 60.583 C 372.667 61.087,372.592 61.500,372.500 61.500 C 372.408 61.500,372.333 61.615,372.333 61.756 C 372.333 62.310,371.257 63.123,370.358 63.247 C 369.886 63.312,369.500 63.438,369.500 63.527 C 369.500 63.847,364.129 63.376,363.461 62.997 C 363.301 62.907,363.020 62.833,362.836 62.833 C 362.651 62.833,362.500 62.758,362.500 62.667 C 362.500 62.575,362.275 62.500,362.000 62.500 C 361.725 62.500,361.500 62.425,361.500 62.333 C 361.500 62.242,361.275 62.167,361.000 62.167 C 360.725 62.167,360.500 62.092,360.500 62.000 C 360.500 61.908,360.387 61.833,360.250 61.833 C 360.113 61.833,360.000 61.758,360.000 61.667 C 360.000 61.575,359.850 61.500,359.667 61.500 C 359.483 61.500,359.333 61.425,359.333 61.333 C 359.333 61.242,359.183 61.167,359.000 61.167 C 358.817 61.167,358.667 61.092,358.667 61.000 C 358.667 60.908,358.442 60.833,358.167 60.833 C 357.892 60.833,357.667 60.908,357.667 61.000 C 357.667 61.092,357.479 61.167,357.250 61.167 C 357.021 61.167,356.833 61.242,356.833 61.333 C 356.833 61.425,356.683 61.500,356.500 61.500 C 356.222 61.500,356.167 61.611,356.167 62.167 C 356.167 62.533,356.092 62.833,356.000 62.833 C 355.908 62.833,355.833 63.096,355.833 63.417 C 355.833 63.737,355.758 64.000,355.667 64.000 C 355.575 64.000,355.500 64.300,355.500 64.667 C 355.500 65.033,355.425 65.333,355.333 65.333 C 355.242 65.333,355.167 65.558,355.167 65.833 C 355.167 66.108,355.092 66.333,355.000 66.333 C 354.908 66.333,354.833 66.591,354.833 66.907 C 354.833 67.222,354.758 67.527,354.667 67.583 C 354.575 67.640,354.500 67.938,354.500 68.246 C 354.500 68.554,354.428 68.831,354.340 68.861 C 354.024 68.971,353.915 71.667,354.226 71.667 C 354.377 71.667,354.500 71.742,354.500 71.833 C 354.500 71.925,354.650 72.000,354.833 72.000 C 355.017 72.000,355.167 72.074,355.167 72.165 C 355.167 72.255,355.467 72.377,355.833 72.436 C 356.200 72.495,356.500 72.608,356.500 72.688 C 356.500 72.768,356.650 72.833,356.833 72.833 C 357.017 72.833,357.167 72.908,357.167 73.000 C 357.167 73.092,357.354 73.167,357.583 73.167 C 357.813 73.167,358.000 73.242,358.000 73.333 C 358.000 73.425,358.225 73.500,358.500 73.500 C 358.775 73.500,359.000 73.575,359.000 73.667 C 359.000 73.758,359.225 73.833,359.500 73.833 C 359.775 73.833,360.000 73.908,360.000 74.000 C 360.000 74.092,360.337 74.167,360.750 74.167 C 361.162 74.167,361.500 74.242,361.500 74.333 C 361.500 74.426,361.941 74.500,362.490 74.500 C 363.035 74.500,363.527 74.575,363.583 74.667 C 363.724 74.894,372.333 74.894,372.333 74.667 C 372.333 74.575,372.746 74.500,373.250 74.500 C 373.754 74.500,374.167 74.425,374.167 74.333 C 374.167 74.242,374.425 74.167,374.740 74.167 C 375.056 74.167,375.360 74.092,375.417 74.000 C 375.473 73.908,375.703 73.833,375.927 73.833 C 376.150 73.833,376.333 73.758,376.333 73.667 C 376.333 73.575,376.558 73.500,376.833 73.500 C 377.108 73.500,377.333 73.425,377.333 73.333 C 377.333 73.242,377.483 73.167,377.667 73.167 C 377.850 73.167,378.000 73.092,378.000 73.000 C 378.000 72.908,378.150 72.833,378.333 72.833 C 378.517 72.833,378.667 72.767,378.667 72.685 C 378.667 72.604,378.929 72.488,379.250 72.428 C 379.571 72.367,379.833 72.247,379.833 72.159 C 379.833 72.072,379.953 72.000,380.100 72.000 C 380.246 72.000,380.576 71.775,380.833 71.500 C 381.090 71.225,381.402 70.999,381.525 70.998 C 381.649 70.998,381.938 70.756,382.167 70.461 C 382.396 70.167,382.827 69.699,383.125 69.422 C 383.423 69.145,383.667 68.825,383.667 68.709 C 383.667 68.594,383.729 68.500,383.805 68.500 C 383.881 68.500,384.050 68.294,384.179 68.042 C 384.308 67.790,384.546 67.462,384.707 67.314 C 384.868 67.166,385.000 66.922,385.000 66.772 C 385.000 66.622,385.064 66.500,385.141 66.500 C 385.318 66.500,385.833 64.934,385.833 64.398 C 385.833 64.179,385.908 64.000,386.000 64.000 C 386.092 64.000,386.167 63.663,386.167 63.250 C 386.167 62.837,386.242 62.500,386.333 62.500 C 386.438 62.500,386.500 61.444,386.500 59.667 C 386.500 57.889,386.438 56.833,386.333 56.833 C 386.242 56.833,386.167 56.533,386.167 56.167 C 386.167 55.800,386.101 55.500,386.021 55.500 C 385.942 55.500,385.827 55.128,385.767 54.674 C 385.706 54.219,385.584 53.802,385.495 53.747 C 385.406 53.692,385.333 53.501,385.333 53.323 C 385.333 53.146,385.258 53.000,385.167 53.000 C 385.075 53.000,385.000 52.867,385.000 52.703 C 385.000 52.540,384.850 52.299,384.667 52.167 C 384.483 52.035,384.333 51.821,384.333 51.691 C 384.333 51.446,383.720 50.833,383.474 50.833 C 383.397 50.833,383.333 50.748,383.333 50.644 C 383.333 50.441,382.040 48.961,381.766 48.850 C 381.676 48.814,381.433 48.626,381.226 48.434 C 380.554 47.808,380.351 47.667,380.127 47.667 C 380.006 47.667,379.799 47.517,379.667 47.333 C 379.535 47.150,379.330 47.000,379.213 47.000 C 379.096 47.000,379.000 46.925,379.000 46.833 C 379.000 46.742,378.850 46.667,378.667 46.667 C 378.483 46.667,378.333 46.592,378.333 46.500 C 378.333 46.408,378.183 46.333,378.000 46.333 C 377.817 46.333,377.667 46.258,377.667 46.167 C 377.667 46.075,377.517 46.000,377.333 46.000 C 377.150 46.000,377.000 45.925,377.000 45.833 C 377.000 45.742,376.850 45.667,376.667 45.667 C 376.483 45.667,376.333 45.609,376.333 45.539 C 376.333 45.348,375.057 44.833,374.582 44.833 C 374.354 44.833,374.167 44.758,374.167 44.667 C 374.167 44.575,374.017 44.500,373.833 44.500 C 373.650 44.500,373.500 44.439,373.500 44.364 C 373.500 44.290,373.238 44.126,372.917 44.000 C 372.596 43.874,372.333 43.710,372.333 43.636 C 372.333 43.561,372.183 43.500,372.000 43.500 C 371.817 43.500,371.667 43.425,371.667 43.333 C 371.667 43.242,371.533 43.167,371.370 43.167 C 371.207 43.167,370.968 43.021,370.840 42.842 C 370.711 42.664,370.560 42.546,370.503 42.581 C 370.253 42.736,369.167 41.404,369.167 40.943 C 369.167 40.791,369.092 40.667,369.000 40.667 C 368.908 40.667,368.833 40.517,368.833 40.333 C 368.833 40.150,368.908 40.000,369.000 40.000 C 369.092 40.000,369.167 39.886,369.167 39.748 C 369.167 39.210,369.992 38.167,370.417 38.167 C 370.554 38.167,370.667 38.092,370.667 38.000 C 370.667 37.908,370.967 37.833,371.333 37.833 C 371.700 37.833,372.000 37.758,372.000 37.667 C 372.000 37.570,372.528 37.500,373.250 37.500 C 373.972 37.500,374.500 37.570,374.500 37.667 C 374.500 37.758,374.875 37.833,375.333 37.833 C 375.792 37.833,376.167 37.900,376.167 37.981 C 376.167 38.062,376.373 38.170,376.625 38.221 C 378.051 38.509,378.926 38.734,379.000 38.832 C 379.046 38.893,379.327 39.049,379.625 39.179 C 379.923 39.309,380.167 39.471,380.167 39.541 C 380.167 39.610,380.467 39.667,380.833 39.667 C 381.200 39.667,381.500 39.592,381.500 39.500 C 381.500 39.408,381.650 39.333,381.833 39.333 C 382.017 39.333,382.167 39.258,382.167 39.167 C 382.167 39.075,382.279 39.000,382.417 39.000 C 382.572 39.000,382.667 38.843,382.667 38.583 C 382.667 38.354,382.742 38.167,382.833 38.167 C 382.925 38.167,383.000 37.867,383.000 37.500 C 383.000 37.133,383.075 36.833,383.167 36.833 C 383.258 36.833,383.333 36.613,383.333 36.343 C 383.333 36.074,383.408 35.807,383.500 35.750 C 383.592 35.693,383.667 35.426,383.667 35.157 C 383.667 34.887,383.742 34.667,383.833 34.667 C 383.925 34.667,384.000 34.367,384.000 34.000 C 384.000 33.633,384.075 33.333,384.167 33.333 C 384.258 33.333,384.333 33.108,384.333 32.833 C 384.333 32.558,384.408 32.333,384.500 32.333 C 384.592 32.333,384.667 32.071,384.667 31.750 C 384.667 31.429,384.742 31.167,384.833 31.167 C 384.925 31.167,385.000 30.786,385.000 30.321 C 385.000 29.451,384.748 29.000,384.262 29.000 C 384.118 29.000,384.000 28.925,384.000 28.833 C 384.000 28.742,383.850 28.667,383.667 28.667 C 383.483 28.667,383.333 28.592,383.333 28.500 C 383.333 28.408,383.188 28.333,383.010 28.333 C 382.832 28.333,382.640 28.258,382.583 28.167 C 382.527 28.075,382.335 28.000,382.157 28.000 C 381.979 28.000,381.833 27.925,381.833 27.833 C 381.833 27.742,381.608 27.667,381.333 27.667 C 381.058 27.667,380.833 27.592,380.833 27.500 C 380.833 27.408,380.533 27.333,380.167 27.333 C 379.800 27.333,379.500 27.258,379.500 27.167 C 379.500 27.075,379.242 27.000,378.927 27.000 C 378.611 27.000,378.307 26.925,378.250 26.833 C 378.193 26.742,377.706 26.667,377.167 26.667 C 376.627 26.667,376.140 26.592,376.083 26.500 C 375.949 26.282,369.671 26.282,369.333 26.500 M151.375 27.958 L 150.833 28.572 150.833 42.693 C 150.833 51.927,150.891 56.849,151.000 56.917 C 151.094 56.975,151.167 57.780,151.167 58.760 C 151.167 59.809,151.233 60.500,151.333 60.500 C 151.426 60.500,151.500 60.944,151.500 61.500 C 151.500 62.056,151.574 62.500,151.667 62.500 C 151.758 62.500,151.833 62.762,151.833 63.083 C 151.833 63.404,151.908 63.667,152.000 63.667 C 152.092 63.667,152.167 63.967,152.167 64.333 C 152.167 64.700,152.242 65.000,152.333 65.000 C 152.425 65.000,152.500 65.150,152.500 65.333 C 152.500 65.517,152.575 65.667,152.667 65.667 C 152.758 65.667,152.833 65.854,152.833 66.083 C 152.833 66.313,152.908 66.500,153.000 66.500 C 153.092 66.500,153.167 66.650,153.167 66.833 C 153.167 67.017,153.242 67.167,153.333 67.167 C 153.425 67.167,153.500 67.317,153.500 67.500 C 153.500 67.683,153.575 67.833,153.667 67.833 C 153.758 67.833,153.833 67.974,153.833 68.146 C 153.833 68.318,153.946 68.553,154.083 68.667 C 154.221 68.781,154.333 68.961,154.333 69.067 C 154.333 69.173,154.483 69.368,154.667 69.500 C 154.850 69.632,155.000 69.834,155.000 69.950 C 155.000 70.228,157.087 72.286,157.505 72.418 C 157.686 72.476,157.833 72.592,157.833 72.678 C 157.833 72.763,157.983 72.833,158.167 72.833 C 158.350 72.833,158.500 72.908,158.500 73.000 C 158.500 73.092,158.650 73.167,158.833 73.167 C 159.017 73.167,159.167 73.242,159.167 73.333 C 159.167 73.425,159.317 73.500,159.500 73.500 C 159.683 73.500,159.833 73.575,159.833 73.667 C 159.833 73.758,159.983 73.833,160.167 73.833 C 160.350 73.833,160.500 73.908,160.500 74.000 C 160.500 74.092,160.688 74.167,160.917 74.167 C 161.146 74.167,161.333 74.242,161.333 74.333 C 161.333 74.425,161.633 74.500,162.000 74.500 C 162.367 74.500,162.667 74.575,162.667 74.667 C 162.667 74.762,163.167 74.833,163.833 74.833 C 164.500 74.833,165.000 74.905,165.000 75.000 C 165.000 75.099,165.611 75.167,166.500 75.167 C 167.389 75.167,168.000 75.099,168.000 75.000 C 168.000 74.906,168.472 74.833,169.083 74.833 C 169.694 74.833,170.167 74.761,170.167 74.667 C 170.167 74.575,170.467 74.500,170.833 74.500 C 171.200 74.500,171.500 74.425,171.500 74.333 C 171.500 74.242,171.725 74.167,172.000 74.167 C 172.275 74.167,172.500 74.092,172.500 74.000 C 172.500 73.908,172.688 73.833,172.917 73.833 C 173.146 73.833,173.333 73.758,173.333 73.667 C 173.333 73.575,173.483 73.500,173.667 73.500 C 173.850 73.500,174.000 73.425,174.000 73.333 C 174.000 73.242,174.150 73.167,174.333 73.167 C 174.517 73.167,174.667 73.092,174.667 73.000 C 174.667 72.908,174.817 72.833,175.000 72.833 C 175.183 72.833,175.333 72.763,175.333 72.678 C 175.333 72.592,175.502 72.469,175.708 72.404 C 175.915 72.339,176.201 72.151,176.344 71.987 C 176.487 71.822,176.710 71.664,176.840 71.635 C 176.970 71.607,177.353 71.302,177.691 70.958 C 178.514 70.124,178.500 70.108,178.500 71.917 C 178.500 72.861,178.567 73.500,178.667 73.500 C 178.758 73.500,178.833 73.650,178.833 73.833 C 178.833 74.160,178.944 74.167,184.589 74.167 L 190.344 74.167 190.922 73.589 L 191.500 73.011 191.500 69.506 C 191.500 67.280,191.439 66.000,191.333 66.000 C 191.223 66.000,191.167 59.637,191.167 47.244 L 191.167 28.489 190.589 27.911 L 190.011 27.333 183.833 27.333 L 177.656 27.333 177.078 27.911 L 176.500 28.489 176.500 42.938 C 176.500 57.907,176.452 59.019,175.794 59.306 C 175.724 59.336,175.667 59.488,175.667 59.644 C 175.667 59.799,175.517 60.035,175.333 60.167 C 175.150 60.299,175.000 60.471,175.000 60.549 C 175.000 60.730,174.567 61.167,174.387 61.167 C 174.312 61.167,173.987 61.392,173.667 61.667 C 173.346 61.941,172.952 62.166,172.792 62.166 C 172.631 62.166,172.500 62.242,172.500 62.333 C 172.500 62.425,172.200 62.500,171.833 62.500 C 171.467 62.500,171.167 62.575,171.167 62.667 C 171.167 62.758,171.017 62.833,170.833 62.833 C 170.650 62.833,170.500 62.758,170.500 62.667 C 170.500 62.575,170.237 62.500,169.917 62.500 C 169.596 62.500,169.333 62.425,169.333 62.333 C 169.333 62.242,169.183 62.167,169.000 62.167 C 168.817 62.167,168.667 62.092,168.667 62.000 C 168.667 61.908,168.552 61.833,168.411 61.833 C 167.847 61.833,166.500 60.031,166.500 59.276 C 166.500 59.135,166.425 58.973,166.333 58.917 C 166.242 58.860,166.167 58.556,166.167 58.240 C 166.167 57.925,166.092 57.667,166.000 57.667 C 165.906 57.667,165.833 57.194,165.833 56.583 C 165.833 55.972,165.761 55.500,165.667 55.500 C 165.557 55.500,165.500 50.887,165.500 41.994 L 165.500 28.489 164.922 27.911 L 164.344 27.333 158.131 27.339 L 151.917 27.345 151.375 27.958 M293.374 27.922 L 292.833 28.511 292.833 50.750 L 292.833 72.989 293.374 73.578 L 293.914 74.167 300.007 74.167 L 306.099 74.167 306.716 73.535 L 307.333 72.903 307.333 50.696 L 307.333 28.489 306.756 27.911 L 306.178 27.333 300.046 27.333 L 293.914 27.333 293.374 27.922 M333.000 37.333 C 333.000 37.425,333.300 37.500,333.667 37.500 C 334.033 37.500,334.333 37.575,334.333 37.667 C 334.333 37.758,334.483 37.833,334.667 37.833 C 334.850 37.833,335.000 37.908,335.000 38.000 C 335.000 38.092,335.097 38.167,335.215 38.167 C 335.534 38.167,337.167 39.755,337.167 40.066 C 337.167 40.213,337.242 40.333,337.333 40.333 C 337.425 40.333,337.500 40.483,337.500 40.667 C 337.500 40.850,337.575 41.000,337.667 41.000 C 337.758 41.000,337.833 41.181,337.833 41.403 C 337.833 41.624,337.911 41.831,338.005 41.863 C 338.100 41.894,338.224 42.576,338.280 43.377 L 338.383 44.833 332.025 44.833 C 325.778 44.833,325.667 44.828,325.667 44.500 C 325.667 44.317,325.742 44.167,325.833 44.167 C 325.925 44.167,326.000 43.942,326.000 43.667 C 326.000 43.392,326.075 43.167,326.167 43.167 C 326.258 43.167,326.333 42.942,326.333 42.667 C 326.333 42.392,326.408 42.167,326.500 42.167 C 326.592 42.167,326.667 42.058,326.667 41.926 C 326.667 41.642,327.283 40.553,327.704 40.094 C 327.867 39.916,328.000 39.672,328.000 39.552 C 328.000 39.432,328.070 39.333,328.155 39.333 C 328.241 39.333,328.355 39.194,328.409 39.024 C 328.463 38.853,328.806 38.579,329.170 38.415 C 329.535 38.251,329.833 38.052,329.833 37.975 C 329.833 37.897,330.016 37.833,330.240 37.833 C 330.464 37.833,330.693 37.758,330.750 37.667 C 330.807 37.575,331.111 37.500,331.427 37.500 C 331.742 37.500,332.000 37.425,332.000 37.333 C 332.000 37.242,332.225 37.167,332.500 37.167 C 332.775 37.167,333.000 37.242,333.000 37.333 M219.639 38.834 C 219.669 38.925,219.822 39.000,219.977 39.000 C 220.133 39.000,220.368 39.150,220.500 39.333 C 220.632 39.517,220.801 39.667,220.876 39.667 C 221.190 39.667,222.833 41.619,222.833 41.993 C 222.833 42.089,222.908 42.167,223.000 42.167 C 223.092 42.167,223.167 42.317,223.167 42.500 C 223.167 42.683,223.242 42.833,223.333 42.833 C 223.425 42.833,223.500 43.052,223.500 43.319 C 223.500 43.587,223.594 43.837,223.708 43.875 C 223.870 43.929,223.917 45.420,223.917 50.583 C 223.917 55.746,223.870 57.238,223.708 57.292 C 223.594 57.330,223.500 57.580,223.500 57.847 C 223.500 58.115,223.425 58.333,223.333 58.333 C 223.242 58.333,223.167 58.520,223.167 58.748 C 223.167 58.976,223.035 59.327,222.875 59.528 C 222.289 60.260,220.672 61.833,220.505 61.833 C 220.411 61.833,220.333 61.908,220.333 62.000 C 220.333 62.092,220.183 62.167,220.000 62.167 C 219.817 62.167,219.667 62.242,219.667 62.333 C 219.667 62.425,219.442 62.500,219.167 62.500 C 218.892 62.500,218.667 62.575,218.667 62.667 C 218.667 62.763,218.139 62.833,217.417 62.833 C 216.694 62.833,216.167 62.763,216.167 62.667 C 216.167 62.575,215.942 62.500,215.667 62.500 C 215.392 62.500,215.167 62.425,215.167 62.333 C 215.167 62.242,215.017 62.167,214.833 62.167 C 214.650 62.167,214.500 62.092,214.500 62.000 C 214.500 61.908,214.423 61.833,214.328 61.833 C 213.960 61.833,211.667 59.319,211.667 58.915 C 211.667 58.778,211.592 58.667,211.500 58.667 C 211.408 58.667,211.333 58.521,211.333 58.343 C 211.333 58.165,211.261 57.975,211.171 57.920 C 211.082 57.865,210.960 57.448,210.900 56.993 C 210.840 56.539,210.725 56.167,210.645 56.167 C 210.565 56.167,210.500 55.867,210.500 55.500 C 210.500 55.133,210.425 54.833,210.333 54.833 C 210.236 54.833,210.167 54.278,210.167 53.500 C 210.167 52.722,210.097 52.167,210.000 52.167 C 209.904 52.167,209.833 51.639,209.833 50.917 C 209.833 50.194,209.904 49.667,210.000 49.667 C 210.097 49.667,210.167 49.111,210.167 48.333 C 210.167 47.600,210.228 47.000,210.302 47.000 C 210.377 47.000,210.456 46.644,210.478 46.208 C 210.500 45.773,210.589 45.392,210.676 45.361 C 210.762 45.331,210.833 45.184,210.833 45.036 C 210.833 44.596,211.396 42.833,211.537 42.833 C 211.608 42.833,211.667 42.683,211.667 42.500 C 211.667 42.317,211.742 42.167,211.833 42.167 C 211.925 42.167,212.000 42.076,212.000 41.964 C 212.000 41.853,212.151 41.609,212.335 41.423 C 212.519 41.236,213.050 40.690,213.515 40.208 C 213.980 39.727,214.467 39.333,214.597 39.333 C 214.727 39.333,214.833 39.258,214.833 39.167 C 214.833 39.075,214.983 39.000,215.167 39.000 C 215.350 39.000,215.500 38.930,215.500 38.844 C 215.500 38.493,219.521 38.483,219.639 38.834 M267.139 38.842 C 267.169 38.929,267.322 39.000,267.477 39.000 C 267.633 39.000,267.868 39.150,268.000 39.333 C 268.132 39.517,268.301 39.667,268.376 39.667 C 268.690 39.667,270.333 41.619,270.333 41.993 C 270.333 42.089,270.408 42.167,270.500 42.167 C 270.592 42.167,270.667 42.317,270.667 42.500 C 270.667 42.683,270.742 42.833,270.833 42.833 C 270.925 42.833,271.000 43.052,271.000 43.319 C 271.000 43.587,271.094 43.837,271.208 43.875 C 271.370 43.929,271.417 45.420,271.417 50.583 C 271.417 55.746,271.370 57.238,271.208 57.292 C 271.094 57.330,271.000 57.580,271.000 57.847 C 271.000 58.115,270.925 58.333,270.833 58.333 C 270.742 58.333,270.667 58.542,270.667 58.797 C 270.667 59.069,270.529 59.359,270.333 59.500 C 270.150 59.632,270.000 59.810,270.000 59.895 C 270.000 60.099,268.207 61.833,267.996 61.833 C 267.907 61.833,267.833 61.908,267.833 62.000 C 267.833 62.092,267.683 62.167,267.500 62.167 C 267.317 62.167,267.167 62.242,267.167 62.333 C 267.167 62.425,266.942 62.500,266.667 62.500 C 266.392 62.500,266.167 62.575,266.167 62.667 C 266.167 62.763,265.639 62.833,264.917 62.833 C 264.194 62.833,263.667 62.763,263.667 62.667 C 263.667 62.575,263.442 62.500,263.167 62.500 C 262.892 62.500,262.667 62.425,262.667 62.333 C 262.667 62.242,262.517 62.167,262.333 62.167 C 262.150 62.167,262.000 62.092,262.000 62.000 C 262.000 61.908,261.919 61.833,261.820 61.833 C 261.721 61.833,261.356 61.537,261.007 61.174 C 260.659 60.812,260.343 60.546,260.305 60.584 C 260.267 60.621,260.053 60.356,259.829 59.993 C 259.605 59.630,259.364 59.333,259.294 59.333 C 259.224 59.333,259.167 59.190,259.167 59.014 C 259.167 58.838,259.110 58.669,259.042 58.639 C 258.871 58.563,258.333 56.955,258.333 56.519 C 258.333 56.325,258.258 56.167,258.167 56.167 C 258.075 56.167,258.000 55.867,258.000 55.500 C 258.000 55.133,257.925 54.833,257.833 54.833 C 257.737 54.833,257.667 54.309,257.667 53.593 C 257.667 52.911,257.592 52.307,257.500 52.250 C 257.408 52.193,257.333 51.593,257.333 50.917 C 257.333 50.240,257.408 49.640,257.500 49.583 C 257.592 49.527,257.667 48.922,257.667 48.240 C 257.667 47.524,257.737 47.000,257.833 47.000 C 257.925 47.000,258.000 46.625,258.000 46.167 C 258.000 45.708,258.066 45.333,258.148 45.333 C 258.229 45.333,258.337 45.127,258.387 44.875 C 258.607 43.766,258.900 42.833,259.028 42.833 C 259.104 42.833,259.167 42.683,259.167 42.500 C 259.167 42.317,259.242 42.167,259.333 42.167 C 259.425 42.167,259.500 42.088,259.500 41.992 C 259.500 41.897,259.688 41.631,259.917 41.402 C 260.146 41.172,260.333 40.913,260.333 40.826 C 260.333 40.738,260.450 40.667,260.593 40.667 C 260.736 40.667,260.812 40.601,260.762 40.520 C 260.712 40.439,260.932 40.195,261.251 39.978 C 261.570 39.761,261.832 39.527,261.832 39.458 C 261.833 39.390,261.946 39.333,262.083 39.333 C 262.221 39.333,262.333 39.258,262.333 39.167 C 262.333 39.075,262.483 39.000,262.667 39.000 C 262.850 39.000,263.000 38.930,263.000 38.844 C 263.000 38.496,267.017 38.493,267.139 38.842 " stroke="none" fill="#040434" fill-rule="evenodd"></path><path id="path3" d="" stroke="none" fill="#4084cc" fill-rule="evenodd"></path><path id="path4" d="" stroke="none" fill="#405460" fill-rule="evenodd"></path></g></svg>